<?xml version="1.0" encoding="UTF-8" standalone="no"?>
<!DOCTYPE svg PUBLIC "-//W3C//DTD SVG 1.1//EN"
		"http://www.w3.org/Graphics/SVG/1.1/DTD/svg11.dtd">
<!-- Generated by graphviz version 13.1.2 (20250808.2320)
 -->
<!-- Title: g Pages: 1 -->
<svg width="748pt" height="317pt"
	 viewBox="0.00 0.00 748.00 317.00" xmlns="http://www.w3.org/2000/svg" xmlns:xlink="http://www.w3.org/1999/xlink">
	<g id="graph0" class="graph" transform="scale(1 1) rotate(0) translate(4 312.5)">
		<title>g</title>
		<polygon fill="white" stroke="none" points="-4,4 -4,-312.5 744,-312.5 744,4 -4,4"/>
		<g id="clust1" class="cluster">
			<title>cluster_1655488073</title>
			<polygon fill="#ececec" stroke="black" points="8,-8 8,-300.5 732,-300.5 732,-8 8,-8"/>
			<text xml:space="preserve" text-anchor="middle" x="58" y="-283.2" font-family="Times,serif" font-size="14.00">winterhavenmc</text>
		</g>
		<g id="clust2" class="cluster">
			<title>cluster_1412706428</title>
			<polygon fill="#d8d8d8" stroke="black" points="16,-16 16,-268 724,-268 724,-16 16,-16"/>
			<text xml:space="preserve" text-anchor="middle" x="42" y="-250.7" font-family="Times,serif" font-size="14.00">library</text>
		</g>
		<!-- Invalid632050429 -->
		<g id="node1" class="node">
			<title>Invalid632050429</title>
			<polygon fill="#ffffff" stroke="none" points="246.12,-148.5 23.88,-148.5 23.88,-24 246.12,-24 246.12,-148.5"/>
			<text xml:space="preserve" text-anchor="start" x="28.88" y="-130.2" font-family="Times,serif" font-size="14.00">(C)Invalid</text>
			<text xml:space="preserve" text-anchor="start" x="28.88" y="-105.7" font-family="Times,serif" font-size="14.00">&#45; &#160;&#160;invalidReason: InvalidReason [0..1]</text>
			<text xml:space="preserve" text-anchor="start" x="28.88" y="-81.2" font-family="Times,serif" font-size="14.00">&#45; &#160;&#160;sender: CommandSender [0..1]</text>
			<text xml:space="preserve" text-anchor="start" x="28.88" y="-56.7" font-family="Times,serif" font-size="14.00">+ invalidReason(): InvalidReason</text>
			<text xml:space="preserve" text-anchor="start" x="28.88" y="-32.2" font-family="Times,serif" font-size="14.00">+ sender(): CommandSender</text>
			<polygon fill="black" stroke="black" points="23.88,-123 23.88,-123 246.12,-123 246.12,-123 23.88,-123"/>
			<polygon fill="black" stroke="black" points="23.88,-74 23.88,-74 246.12,-74 246.12,-74 23.88,-74"/>
			<polygon fill="none" stroke="black" points="23.88,-24 23.88,-148.5 246.12,-148.5 246.12,-24 23.88,-24"/>
		</g>
		<!-- Proxied632050429 -->
		<g id="node2" class="node">
			<title>Proxied632050429</title>
			<polygon fill="#ffffff" stroke="none" points="499.88,-148.5 264.12,-148.5 264.12,-24 499.88,-24 499.88,-148.5"/>
			<text xml:space="preserve" text-anchor="start" x="269.12" y="-130.2" font-family="Times,serif" font-size="14.00">(C)Proxied</text>
			<text xml:space="preserve" text-anchor="start" x="269.12" y="-105.7" font-family="Times,serif" font-size="14.00">&#45; &#160;&#160;proxy: ProxiedCommandSender [0..1]</text>
			<text xml:space="preserve" text-anchor="start" x="269.12" y="-81.2" font-family="Times,serif" font-size="14.00">&#45; &#160;&#160;sender: CommandSender [0..1]</text>
			<text xml:space="preserve" text-anchor="start" x="269.12" y="-56.7" font-family="Times,serif" font-size="14.00">+ proxy(): ProxiedCommandSender</text>
			<text xml:space="preserve" text-anchor="start" x="269.12" y="-32.2" font-family="Times,serif" font-size="14.00">+ sender(): CommandSender</text>
			<polygon fill="black" stroke="black" points="264.12,-123 264.12,-123 499.88,-123 499.88,-123 264.12,-123"/>
			<polygon fill="black" stroke="black" points="264.12,-74 264.12,-74 499.88,-74 499.88,-74 264.12,-74"/>
			<polygon fill="none" stroke="black" points="264.12,-24 264.12,-148.5 499.88,-148.5 499.88,-24 264.12,-24"/>
		</g>
		<!-- Recipient2105687416 -->
		<g id="node3" class="node">
			<title>Recipient2105687416</title>
			<polygon fill="#f1e5fd" stroke="none" points="501.75,-235.5 262.25,-235.5 262.25,-184.5 501.75,-184.5 501.75,-235.5"/>
			<text xml:space="preserve" text-anchor="start" x="267.25" y="-217.2" font-family="Times,serif" font-size="14.00">(I)Recipient</text>
			<text xml:space="preserve" text-anchor="start" x="267.25" y="-192.7" font-family="Times,serif" font-size="14.00">+ of(sender: CommandSender): Recipient</text>
			<polygon fill="black" stroke="black" points="262.25,-210 262.25,-210 501.75,-210 501.75,-210 262.25,-210"/>
			<polygon fill="none" stroke="black" points="262.25,-184.5 262.25,-235.5 501.75,-235.5 501.75,-184.5 262.25,-184.5"/>
		</g>
		<!-- Recipient2105687416&#45;&gt;Invalid632050429 -->
		<g id="edge1" class="edge">
			<title>Recipient2105687416&#45;&gt;Invalid632050429</title>
			<path fill="none" stroke="black" d="M320.7,-179.8C288.23,-164.33 255,-148.5 255,-148.5 255,-148.5 251.61,-146.77 245.98,-143.9"/>
			<polygon fill="none" stroke="black" points="318.81,-182.77 329.34,-183.92 321.82,-176.46 318.81,-182.77"/>
		</g>
		<!-- Recipient2105687416&#45;&gt;Proxied632050429 -->
		<g id="edge2" class="edge">
			<title>Recipient2105687416&#45;&gt;Proxied632050429</title>
			<path fill="none" stroke="black" d="M382,-173.33C382,-165.46 382,-156.91 382,-148.35"/>
			<polygon fill="none" stroke="black" points="378.5,-173.14 382,-183.14 385.5,-173.14 378.5,-173.14"/>
		</g>
		<!-- Valid632050429 -->
		<g id="node4" class="node">
			<title>Valid632050429</title>
			<polygon fill="#ffffff" stroke="none" points="715.75,-124 518.25,-124 518.25,-48.5 715.75,-48.5 715.75,-124"/>
			<text xml:space="preserve" text-anchor="start" x="523.25" y="-105.7" font-family="Times,serif" font-size="14.00">(C)Valid</text>
			<text xml:space="preserve" text-anchor="start" x="523.25" y="-81.2" font-family="Times,serif" font-size="14.00">&#45; &#160;&#160;sender: CommandSender [0..1]</text>
			<text xml:space="preserve" text-anchor="start" x="523.25" y="-56.7" font-family="Times,serif" font-size="14.00">+ sender(): CommandSender</text>
			<polygon fill="black" stroke="black" points="518.25,-98.5 518.25,-98.5 715.75,-98.5 715.75,-98.5 518.25,-98.5"/>
			<polygon fill="black" stroke="black" points="518.25,-74 518.25,-74 715.75,-74 715.75,-74 518.25,-74"/>
			<polygon fill="none" stroke="black" points="518.25,-48.5 518.25,-124 715.75,-124 715.75,-48.5 518.25,-48.5"/>
		</g>
		<!-- Recipient2105687416&#45;&gt;Valid632050429 -->
		<g id="edge3" class="edge">
			<title>Recipient2105687416&#45;&gt;Valid632050429</title>
			<path fill="none" stroke="black" d="M443.3,-179.8C475.77,-164.33 509,-148.5 509,-148.5 509,-148.5 529.3,-136.98 552.31,-123.94"/>
			<polygon fill="none" stroke="black" points="442.18,-176.46 434.66,-183.92 445.19,-182.77 442.18,-176.46"/>
		</g>
	</g>
</svg>
