<svg xmlns="http://www.w3.org/2000/svg" xmlns:xlink="http://www.w3.org/1999/xlink" contentStyleType="text/css" data-diagram-type="CLASS" height="502px" preserveAspectRatio="none" style="width:538px;height:502px;background:#F9F9F9;" version="1.1" viewBox="0 0 538 502" width="538px" zoomAndPan="magnify"><defs><filter height="300%" id="fvy5bn9n3vnn7" width="300%" x="-1" y="-1"><feGaussianBlur result="blurOut" stdDeviation="2"/><feColorMatrix in="blurOut" result="blurOut2" type="matrix" values="0 0 0 0 0 0 0 0 0 0 0 0 0 0 0 0 0 0 .4 0"/><feOffset dx="4" dy="4" in="blurOut2" result="blurOut3"/><feBlend in="SourceGraphic" in2="blurOut3" mode="normal"/></filter></defs><g><rect fill="#F9F9F9" height="502" style="stroke:none;stroke-width:1;" width="538" x="0" y="0"/><!--cluster recipient--><g class="cluster" data-entity="recipient" data-source-line="22" data-uid="ent0002" id="cluster_recipient"><path d="M13.5,6 L67.9717,6 A11.25,11.25 0 0 1 75.4717,13.5 L82.4717,28.4883 L516.5,28.4883 A7.5,7.5 0 0 1 524,35.9883 L524,480.29 A7.5,7.5 0 0 1 516.5,487.79 L13.5,487.79 A7.5,7.5 0 0 1 6,480.29 L6,13.5 A7.5,7.5 0 0 1 13.5,6" fill="none" filter="url(#fvy5bn9n3vnn7)" style="stroke:#000000;stroke-width:1.5;"/><line style="stroke:#000000;stroke-width:1.5;" x1="6" x2="82.4717" y1="28.4883" y2="28.4883"/><text fill="#000000" font-family="sans-serif" font-size="14" font-weight="bold" lengthAdjust="spacing" textLength="63.4717" x="10" y="21.5352">recipient</text></g><!--class Recipient--><g class="entity" data-entity="Recipient" data-source-line="23" data-uid="ent0003" id="entity_Recipient"><rect fill="#CFEFFF" filter="url(#fvy5bn9n3vnn7)" height="70.6211" rx="7.5" ry="7.5" style="stroke:#888888;stroke-width:0.5;" width="288.1445" x="120.93" y="41"/><ellipse cx="231.5696" cy="60.0664" fill="#B4A7E5" rx="11" ry="11" style="stroke:#181818;stroke-width:1;"/><path d="M227.4974,55.8315 L227.4974,53.6733 L234.8768,53.6733 L234.8768,55.8315 L232.4114,55.8315 L232.4114,63.9082 L234.8768,63.9082 L234.8768,66.0664 L227.4974,66.0664 L227.4974,63.9082 L229.9627,63.9082 L229.9627,55.8315 Z " fill="#000000"/><text fill="#000000" font-family="sans-serif" font-size="12" font-style="italic" lengthAdjust="spacing" textLength="45.4219" x="258.5413" y="57.6016">&#171;entity&#187;</text><text fill="#000000" font-family="Helvetica" font-size="14" font-style="italic" lengthAdjust="spacing" textLength="58.3652" x="252.0696" y="70.9131">Recipient</text><line style="stroke:#888888;stroke-width:0.5;" x1="121.93" x2="408.0745" y1="79.1328" y2="79.1328"/><line style="stroke:#888888;stroke-width:0.5;" x1="121.93" x2="408.0745" y1="87.1328" y2="87.1328"/><text fill="#000000" font-family="sans-serif" font-size="14" lengthAdjust="spacing" textLength="276.1445" x="126.93" y="104.668">+of(sender: CommandSender): Recipient</text></g><!--class Sendable--><g class="entity" data-entity="Sendable" data-source-line="26" data-uid="ent0004" id="entity_Sendable"><rect fill="#E6FFE6" filter="url(#fvy5bn9n3vnn7)" height="70.6211" rx="7.5" ry="7.5" style="stroke:#888888;stroke-width:0.5;" width="203.085" x="31.46" y="196.35"/><ellipse cx="90.9058" cy="215.4164" fill="#B4A7E5" rx="11" ry="11" style="stroke:#181818;stroke-width:1;"/><path d="M86.8335,211.1815 L86.8335,209.0233 L94.2129,209.0233 L94.2129,211.1815 L91.7476,211.1815 L91.7476,219.2582 L94.2129,219.2582 L94.2129,221.4164 L86.8335,221.4164 L86.8335,219.2582 L89.2989,219.2582 L89.2989,211.1815 Z " fill="#000000"/><text fill="#000000" font-family="sans-serif" font-size="12" font-style="italic" lengthAdjust="spacing" textLength="79.6934" x="109.4058" y="212.9516">&#171;entity-valid&#187;</text><text fill="#000000" font-family="Helvetica" font-size="14" font-style="italic" lengthAdjust="spacing" textLength="59.165" x="119.67" y="226.2631">Sendable</text><line style="stroke:#888888;stroke-width:0.5;" x1="32.46" x2="233.545" y1="234.4828" y2="234.4828"/><line style="stroke:#888888;stroke-width:0.5;" x1="32.46" x2="233.545" y1="242.4828" y2="242.4828"/><text fill="#000000" font-family="sans-serif" font-size="14" lengthAdjust="spacing" textLength="191.085" x="37.46" y="260.018">+sender(): CommandSender</text></g><!--class ValidRecipient--><g class="entity" data-entity="ValidRecipient" data-source-line="29" data-uid="ent0005" id="entity_ValidRecipient"><rect fill="#E6FFE6" filter="url(#fvy5bn9n3vnn7)" height="87.1094" rx="7.5" ry="7.5" style="stroke:#888888;stroke-width:0.5;" width="203.085" x="22.46" y="368.19"/><ellipse cx="75.0044" cy="387.2564" fill="#ADD1B2" rx="11" ry="11" style="stroke:#181818;stroke-width:1;"/><path d="M77.9776,392.8995 Q77.3965,393.1983 76.7574,393.3477 Q76.1182,393.4971 75.4126,393.4971 Q72.9058,393.4971 71.586,391.8453 Q70.2662,390.1934 70.2662,387.0723 Q70.2662,383.9429 71.586,382.2911 Q72.9058,380.6392 75.4126,380.6392 Q76.1182,380.6392 76.7657,380.7886 Q77.4131,380.938 77.9776,381.2369 L77.9776,383.9595 Q77.3467,383.3785 76.7532,383.1087 Q76.1597,382.8389 75.5288,382.8389 Q74.1841,382.8389 73.4993,383.9056 Q72.8145,384.9722 72.8145,387.0723 Q72.8145,389.1641 73.4993,390.2308 Q74.1841,391.2974 75.5288,391.2974 Q76.1597,391.2974 76.7532,391.0276 Q77.3467,390.7579 77.9776,390.1768 Z " fill="#000000"/><text fill="#000000" font-family="sans-serif" font-size="12" font-style="italic" lengthAdjust="spacing" textLength="79.6934" x="100.4058" y="384.7916">&#171;entity-valid&#187;</text><text fill="#000000" font-family="Helvetica" font-size="14" lengthAdjust="spacing" textLength="89.4961" x="95.5044" y="398.1031">ValidRecipient</text><line style="stroke:#888888;stroke-width:0.5;" x1="23.46" x2="224.545" y1="406.3228" y2="406.3228"/><text fill="#000000" font-family="sans-serif" font-size="14" lengthAdjust="spacing" textLength="178.9512" x="28.46" y="423.858">-sender: CommandSender</text><line style="stroke:#888888;stroke-width:1;" x1="23.46" x2="224.545" y1="430.8111" y2="430.8111"/><text fill="#000000" font-family="sans-serif" font-size="14" lengthAdjust="spacing" textLength="191.085" x="28.46" y="448.3463">+sender(): CommandSender</text></g><!--class ProxiedRecipient--><g class="entity" data-entity="ProxiedRecipient" data-source-line="34" data-uid="ent0006" id="entity_ProxiedRecipient"><rect fill="#E6FFE6" filter="url(#fvy5bn9n3vnn7)" height="120.0859" rx="7.5" ry="7.5" style="stroke:#888888;stroke-width:0.5;" width="247.4707" x="260.26" y="351.7"/><ellipse cx="326.8284" cy="370.7664" fill="#ADD1B2" rx="11" ry="11" style="stroke:#181818;stroke-width:1;"/><path d="M329.8015,376.4095 Q329.2204,376.7083 328.5813,376.8577 Q327.9421,377.0071 327.2366,377.0071 Q324.7297,377.0071 323.4099,375.3553 Q322.0901,373.7034 322.0901,370.5823 Q322.0901,367.4529 323.4099,365.8011 Q324.7297,364.1492 327.2366,364.1492 Q327.9421,364.1492 328.5896,364.2986 Q329.2371,364.448 329.8015,364.7469 L329.8015,367.4695 Q329.1706,366.8885 328.5771,366.6187 Q327.9836,366.3489 327.3528,366.3489 Q326.008,366.3489 325.3232,367.4156 Q324.6384,368.4822 324.6384,370.5823 Q324.6384,372.6741 325.3232,373.7408 Q326.008,374.8074 327.3528,374.8074 Q327.9836,374.8074 328.5771,374.5376 Q329.1706,374.2679 329.8015,373.6868 Z " fill="#000000"/><text fill="#000000" font-family="sans-serif" font-size="12" font-style="italic" lengthAdjust="spacing" textLength="79.6934" x="360.3987" y="368.3016">&#171;entity-valid&#187;</text><text fill="#000000" font-family="Helvetica" font-size="14" lengthAdjust="spacing" textLength="105.834" x="347.3284" y="381.6131">ProxiedRecipient</text><line style="stroke:#888888;stroke-width:0.5;" x1="261.26" x2="506.7307" y1="389.8328" y2="389.8328"/><text fill="#000000" font-family="sans-serif" font-size="14" lengthAdjust="spacing" textLength="223.3369" x="266.26" y="407.368">-proxy: ProxiedCommandSender</text><text fill="#000000" font-family="sans-serif" font-size="14" lengthAdjust="spacing" textLength="178.9512" x="266.26" y="423.8563">-sender: CommandSender</text><line style="stroke:#888888;stroke-width:1;" x1="261.26" x2="506.7307" y1="430.8094" y2="430.8094"/><text fill="#000000" font-family="sans-serif" font-size="14" lengthAdjust="spacing" textLength="235.4707" x="266.26" y="448.3445">+proxy(): ProxiedCommandSender</text><text fill="#000000" font-family="sans-serif" font-size="14" lengthAdjust="spacing" textLength="191.085" x="266.26" y="464.8328">+sender(): CommandSender</text></g><!--class InvalidRecipient--><g class="entity" data-entity="InvalidRecipient" data-source-line="41" data-uid="ent0007" id="entity_InvalidRecipient"><rect fill="#FFE6E6" filter="url(#fvy5bn9n3vnn7)" height="120.0859" rx="7.5" ry="7.5" style="stroke:#888888;stroke-width:0.5;" width="227.9336" x="270.03" y="171.62"/><ellipse cx="330.3298" cy="190.6864" fill="#ADD1B2" rx="11" ry="11" style="stroke:#181818;stroke-width:1;"/><path d="M333.3029,196.3295 Q332.7219,196.6283 332.0827,196.7777 Q331.4436,196.9271 330.738,196.9271 Q328.2312,196.9271 326.9113,195.2753 Q325.5915,193.6234 325.5915,190.5023 Q325.5915,187.3729 326.9113,185.7211 Q328.2312,184.0692 330.738,184.0692 Q331.4436,184.0692 332.091,184.2186 Q332.7385,184.368 333.3029,184.6669 L333.3029,187.3895 Q332.6721,186.8085 332.0786,186.5387 Q331.4851,186.2689 330.8542,186.2689 Q329.5095,186.2689 328.8247,187.3356 Q328.1399,188.4022 328.1399,190.5023 Q328.1399,192.5941 328.8247,193.6608 Q329.5095,194.7274 330.8542,194.7274 Q331.4851,194.7274 332.0786,194.4576 Q332.6721,194.1879 333.3029,193.6068 Z " fill="#000000"/><text fill="#000000" font-family="sans-serif" font-size="12" font-style="italic" lengthAdjust="spacing" textLength="90.6094" x="354.9421" y="188.2216">&#171;entity-invalid&#187;</text><text fill="#000000" font-family="Helvetica" font-size="14" lengthAdjust="spacing" textLength="98.834" x="350.8298" y="201.5331">InvalidRecipient</text><line style="stroke:#888888;stroke-width:0.5;" x1="271.03" x2="496.9636" y1="209.7528" y2="209.7528"/><text fill="#000000" font-family="sans-serif" font-size="14" lengthAdjust="spacing" textLength="203.7998" x="276.03" y="227.288">-invalidReason: InvalidReason</text><text fill="#000000" font-family="sans-serif" font-size="14" lengthAdjust="spacing" textLength="178.9512" x="276.03" y="243.7763">-sender: CommandSender</text><line style="stroke:#888888;stroke-width:1;" x1="271.03" x2="496.9636" y1="250.7294" y2="250.7294"/><text fill="#000000" font-family="sans-serif" font-size="14" lengthAdjust="spacing" textLength="215.9336" x="276.03" y="268.2645">+invalidReason(): InvalidReason</text><text fill="#000000" font-family="sans-serif" font-size="14" lengthAdjust="spacing" textLength="191.085" x="276.03" y="284.7528">+sender(): CommandSender</text></g><!--reverse link Recipient to Sendable--><g class="link" data-entity-1="Recipient" data-entity-2="Sendable" data-source-line="51" data-uid="lnk8" id="link_Recipient_Sendable"><path codeLine="51" d="M231.1344,116.6562 C209.5244,141.7462 184.41,170.93 162.83,196" fill="none" id="Recipient-backto-Sendable" style="stroke:#444444;stroke-width:1.2;"/><polygon fill="#444444" points="235.05,112.11,226.1458,116.3189,231.787,115.8985,232.2073,121.5397,235.05,112.11" style="stroke:#444444;stroke-width:1.2;"/></g><!--reverse link Recipient to InvalidRecipient--><g class="link" data-entity-1="Recipient" data-entity-2="InvalidRecipient" data-source-line="52" data-uid="lnk9" id="link_Recipient_InvalidRecipient"><path codeLine="52" d="M295.6797,116.8492 C309.2597,134.3392 322.42,151.3 337.96,171.33" fill="none" id="Recipient-backto-InvalidRecipient" style="stroke:#444444;stroke-width:1.2;"/><polygon fill="#444444" points="292,112.11,294.3601,121.6719,295.0664,116.0593,300.679,116.7656,292,112.11" style="stroke:#444444;stroke-width:1.2;"/></g><!--reverse link Sendable to ValidRecipient--><g class="link" data-entity-1="Sendable" data-entity-2="ValidRecipient" data-source-line="53" data-uid="lnk10" id="link_Sendable_ValidRecipient"><path codeLine="53" d="M130.9378,273.4124 C129.4878,302.1624 127.72,337.12 126.17,367.9" fill="none" id="Sendable-backto-ValidRecipient" style="stroke:#444444;stroke-width:1.2;"/><polygon fill="#444444" points="131.24,267.42,126.7917,276.2071,130.9881,272.4137,134.7816,276.6101,131.24,267.42" style="stroke:#444444;stroke-width:1.2;"/></g><!--reverse link Sendable to ProxiedRecipient--><g class="link" data-entity-1="Sendable" data-entity-2="ProxiedRecipient" data-source-line="54" data-uid="lnk11" id="link_Sendable_ProxiedRecipient"><path codeLine="54" d="M186.8834,270.892 C220.4834,294.732 261.02,323.49 300.29,351.35" fill="none" id="Sendable-backto-ProxiedRecipient" style="stroke:#444444;stroke-width:1.2;"/><polygon fill="#444444" points="181.99,267.42,187.0154,275.8902,186.0678,270.3133,191.6448,269.3657,181.99,267.42" style="stroke:#444444;stroke-width:1.2;"/></g><!--SRC=[dP9RQm8n48NVzrSCzK6bRAcbbLPKKA5M45kg27sCknCDheaaKMkB_xsRzR9flDGQdpRdc-CvOR9GgLIWsNwjrzhGxNsqMvsckVBKcF4faMG20nACXrBCUDWGaP2GeK_cPn5gH4AnO7m8MixG4ZPJagE4meCbrAGKYutTVN9SiJTYmPYZKb2ukNF5Py5rbtqX50gMD8s3aY7sc8um9Mpd829A6Qb39WXNBnZDKRE0NBbCJMl91ZEDhK3mnEVMHU3R0wWxRxCOCOtcNiWGvQRWOtAyrJaEvJ9opVIoMeLCG95IUfpnvoHYeI6nI2aMJv2CxrX3nkpAypRl1H83DcKncGG2O5oZf2H0UDyfLgurPCur29fJoEEg9MY8oOJmi9jyvalfR8Al76U3aK64i5V6jbzxv_AEk-MuViY-cTqFUy3JXuDvKzs_uE_VfFXaU6w0QKmlIzkX8p7-4pCnD2bFMfvVfxLUbWDrqZMo2x4jJvJWfNJSV5xMw9UZ2NpOywzAyOvdCHoYygmklhzRFkVQxUsbIngh_HEQkm3U3m00]--></g></svg>
