<?xml version="1.0" encoding="UTF-8" standalone="no"?>
<!DOCTYPE svg PUBLIC "-//W3C//DTD SVG 1.1//EN"
 "http://www.w3.org/Graphics/SVG/1.1/DTD/svg11.dtd">
<!-- Generated by graphviz version 13.1.2 (20250808.2320)
 -->
<!-- Title: g Pages: 1 -->
<svg width="756pt" height="537pt"
 viewBox="0.00 0.00 756.00 537.00" xmlns="http://www.w3.org/2000/svg" xmlns:xlink="http://www.w3.org/1999/xlink">
<g id="graph0" class="graph" transform="scale(1 1) rotate(0) translate(4 533)">
<title>g</title>
<polygon fill="white" stroke="none" points="-4,4 -4,-533 752,-533 752,4 -4,4"/>
<g id="clust1" class="cluster">
<title>cluster_1655488073</title>
<polygon fill="#ececec" stroke="black" points="8,-8 8,-521 740,-521 740,-8 8,-8"/>
<text xml:space="preserve" text-anchor="middle" x="58" y="-503.7" font-family="Times,serif" font-size="14.00">winterhavenmc</text>
</g>
<g id="clust2" class="cluster">
<title>cluster_1412706428</title>
<polygon fill="#d8d8d8" stroke="black" points="16,-16 16,-488.5 732,-488.5 732,-16 16,-16"/>
<text xml:space="preserve" text-anchor="middle" x="42" y="-471.2" font-family="Times,serif" font-size="14.00">library</text>
</g>
<!-- InvalidSoundRecord618404846 -->
<g id="node1" class="node">
<title>InvalidSoundRecord618404846</title>
<polygon fill="#ffffff" stroke="none" points="357.88,-246.5 218.12,-246.5 218.12,-122 357.88,-122 357.88,-246.5"/>
<text xml:space="preserve" text-anchor="start" x="223.12" y="-228.2" font-family="Times,serif" font-size="14.00">(C)InvalidSoundRecord</text>
<text xml:space="preserve" text-anchor="start" x="223.12" y="-203.7" font-family="Times,serif" font-size="14.00">&#45; &#160;&#160;key: String [0..1]</text>
<text xml:space="preserve" text-anchor="start" x="223.12" y="-179.2" font-family="Times,serif" font-size="14.00">&#45; &#160;&#160;reason: String [0..1]</text>
<text xml:space="preserve" text-anchor="start" x="223.12" y="-154.7" font-family="Times,serif" font-size="14.00">+ key(): String</text>
<text xml:space="preserve" text-anchor="start" x="223.12" y="-130.2" font-family="Times,serif" font-size="14.00">+ reason(): String</text>
<polygon fill="black" stroke="black" points="218.12,-221 218.12,-221 357.88,-221 357.88,-221 218.12,-221"/>
<polygon fill="black" stroke="black" points="218.12,-172 218.12,-172 357.88,-172 357.88,-172 218.12,-172"/>
<polygon fill="none" stroke="black" points="218.12,-122 218.12,-246.5 357.88,-246.5 357.88,-122 218.12,-122"/>
</g>
<!-- SoundRecord618404846 -->
<g id="node2" class="node">
<title>SoundRecord618404846</title>
<polygon fill="#f1e5fd" stroke="none" points="723.62,-456 24.38,-456 24.38,-380.5 723.62,-380.5 723.62,-456"/>
<text xml:space="preserve" text-anchor="start" x="29.38" y="-437.7" font-family="Times,serif" font-size="14.00">(I)SoundRecord</text>
<text xml:space="preserve" text-anchor="start" x="29.38" y="-413.2" font-family="Times,serif" font-size="14.00">+ key(): String</text>
<text xml:space="preserve" text-anchor="start" x="29.38" y="-388.7" font-family="Times,serif" font-size="14.00">+ of(key: String, enabled: boolean, playerOnly: boolean, bukkitSoundName: String, volume: float, pitch: float): SoundRecord</text>
<polygon fill="black" stroke="black" points="24.38,-430.5 24.38,-430.5 723.62,-430.5 723.62,-430.5 24.38,-430.5"/>
<polygon fill="none" stroke="black" points="24.38,-380.5 24.38,-456 723.62,-456 723.62,-380.5 24.38,-380.5"/>
</g>
<!-- SoundRecord618404846&#45;&gt;InvalidSoundRecord618404846 -->
<g id="edge1" class="edge">
<title>SoundRecord618404846&#45;&gt;InvalidSoundRecord618404846</title>
<path fill="none" stroke="black" d="M356.53,-370.13C343.3,-334.44 325.01,-285.1 310.66,-246.37"/>
<polygon fill="none" stroke="black" points="353.18,-371.17 359.94,-379.33 359.75,-368.73 353.18,-371.17"/>
</g>
<!-- ValidSoundRecord618404846 -->
<g id="node3" class="node">
<title>ValidSoundRecord618404846</title>
<polygon fill="#ffffff" stroke="none" points="541.62,-344.5 376.38,-344.5 376.38,-24 541.62,-24 541.62,-344.5"/>
<text xml:space="preserve" text-anchor="start" x="381.38" y="-326.2" font-family="Times,serif" font-size="14.00">(C)ValidSoundRecord</text>
<text xml:space="preserve" text-anchor="start" x="381.38" y="-301.7" font-family="Times,serif" font-size="14.00">&#45; &#160;&#160;enabled: boolean [1]</text>
<text xml:space="preserve" text-anchor="start" x="381.38" y="-277.2" font-family="Times,serif" font-size="14.00">&#45; &#160;&#160;key: String [0..1]</text>
<text xml:space="preserve" text-anchor="start" x="381.38" y="-252.7" font-family="Times,serif" font-size="14.00">&#45; &#160;&#160;pitch: float [1]</text>
<text xml:space="preserve" text-anchor="start" x="381.38" y="-228.2" font-family="Times,serif" font-size="14.00">&#45; &#160;&#160;playerOnly: boolean [1]</text>
<text xml:space="preserve" text-anchor="start" x="381.38" y="-203.7" font-family="Times,serif" font-size="14.00">&#45; &#160;&#160;soundName: String [0..1]</text>
<text xml:space="preserve" text-anchor="start" x="381.38" y="-179.2" font-family="Times,serif" font-size="14.00">&#45; &#160;&#160;volume: float [1]</text>
<text xml:space="preserve" text-anchor="start" x="381.38" y="-154.7" font-family="Times,serif" font-size="14.00">+ enabled(): boolean</text>
<text xml:space="preserve" text-anchor="start" x="381.38" y="-130.2" font-family="Times,serif" font-size="14.00">+ key(): String</text>
<text xml:space="preserve" text-anchor="start" x="381.38" y="-105.7" font-family="Times,serif" font-size="14.00">+ pitch(): float</text>
<text xml:space="preserve" text-anchor="start" x="381.38" y="-81.2" font-family="Times,serif" font-size="14.00">+ playerOnly(): boolean</text>
<text xml:space="preserve" text-anchor="start" x="381.38" y="-56.7" font-family="Times,serif" font-size="14.00">+ soundName(): String</text>
<text xml:space="preserve" text-anchor="start" x="381.38" y="-32.2" font-family="Times,serif" font-size="14.00">+ volume(): float</text>
<polygon fill="black" stroke="black" points="376.38,-319 376.38,-319 541.62,-319 541.62,-319 376.38,-319"/>
<polygon fill="black" stroke="black" points="376.38,-172 376.38,-172 541.62,-172 541.62,-172 376.38,-172"/>
<polygon fill="none" stroke="black" points="376.38,-24 376.38,-344.5 541.62,-344.5 541.62,-24 376.38,-24"/>
</g>
<!-- SoundRecord618404846&#45;&gt;ValidSoundRecord618404846 -->
<g id="edge2" class="edge">
<title>SoundRecord618404846&#45;&gt;ValidSoundRecord618404846</title>
<path fill="none" stroke="black" d="M391.33,-369.94C394.26,-361.95 397.43,-353.29 400.76,-344.21"/>
<polygon fill="none" stroke="black" points="388.05,-368.73 387.9,-379.32 394.62,-371.14 388.05,-368.73"/>
</g>
</g>
</svg>
