<svg xmlns="http://www.w3.org/2000/svg" xmlns:xlink="http://www.w3.org/1999/xlink" contentStyleType="text/css" data-diagram-type="CLASS" height="470px" preserveAspectRatio="none" style="width:900px;height:470px;background:#F9F9F9;" version="1.1" viewBox="0 0 900 470" width="900px" zoomAndPan="magnify"><defs><filter height="300%" id="f1odc9twqn9qqg" width="300%" x="-1" y="-1"><feGaussianBlur result="blurOut" stdDeviation="2"/><feColorMatrix in="blurOut" result="blurOut2" type="matrix" values="0 0 0 0 0 0 0 0 0 0 0 0 0 0 0 0 0 0 .4 0"/><feOffset dx="4" dy="4" in="blurOut2" result="blurOut3"/><feBlend in="SourceGraphic" in2="blurOut3" mode="normal"/></filter></defs><g><rect fill="#F9F9F9" height="470" style="stroke:none;stroke-width:1;" width="900" x="0" y="0"/><!--cluster sound--><g class="cluster" data-entity="sound" data-source-line="22" data-uid="ent0002" id="cluster_sound"><path d="M13.5,6 L49.0225,6 A11.25,11.25 0 0 1 56.5225,13.5 L63.5225,28.4883 L878.5,28.4883 A7.5,7.5 0 0 1 886,35.9883 L886,448.6 A7.5,7.5 0 0 1 878.5,456.1 L13.5,456.1 A7.5,7.5 0 0 1 6,448.6 L6,13.5 A7.5,7.5 0 0 1 13.5,6" fill="none" filter="url(#f1odc9twqn9qqg)" style="stroke:#000000;stroke-width:1.5;"/><line style="stroke:#000000;stroke-width:1.5;" x1="6" x2="63.5225" y1="28.4883" y2="28.4883"/><text fill="#000000" font-family="sans-serif" font-size="14" font-weight="bold" lengthAdjust="spacing" textLength="44.5225" x="10" y="21.5352">sound</text></g><!--class SoundRecord--><g class="entity" data-entity="SoundRecord" data-source-line="23" data-uid="ent0003" id="entity_SoundRecord"><rect fill="#CFEFFF" filter="url(#f1odc9twqn9qqg)" height="87.1094" rx="7.5" ry="7.5" style="stroke:#888888;stroke-width:0.5;" width="848.7734" x="21.61" y="41"/><ellipse cx="398.9401" cy="60.0664" fill="#B4A7E5" rx="11" ry="11" style="stroke:#181818;stroke-width:1;"/><path d="M394.8678,55.8315 L394.8678,53.6733 L402.2472,53.6733 L402.2472,55.8315 L399.7819,55.8315 L399.7819,63.9082 L402.2472,63.9082 L402.2472,66.0664 L394.8678,66.0664 L394.8678,63.9082 L397.3331,63.9082 L397.3331,55.8315 Z " fill="#000000"/><text fill="#000000" font-family="sans-serif" font-size="12" font-style="italic" lengthAdjust="spacing" textLength="45.4219" x="439.5358" y="57.6016">&#171;entity&#187;</text><text fill="#000000" font-family="Helvetica" font-size="14" font-style="italic" lengthAdjust="spacing" textLength="85.6133" x="419.4401" y="70.9131">SoundRecord</text><line style="stroke:#888888;stroke-width:0.5;" x1="22.61" x2="869.3834" y1="79.1328" y2="79.1328"/><line style="stroke:#888888;stroke-width:0.5;" x1="22.61" x2="869.3834" y1="87.1328" y2="87.1328"/><text fill="#000000" font-family="sans-serif" font-size="14" lengthAdjust="spacing" textLength="92.3604" x="27.61" y="104.668">+key(): String</text><text fill="#000000" font-family="sans-serif" font-size="14" lengthAdjust="spacing" textLength="836.7734" x="27.61" y="121.1563">+of(key: String, enabled: boolean, playerOnly: boolean, bukkitSoundName: String, volume: float, pitch: float): SoundRecord</text></g><!--class ValidSoundRecord--><g class="entity" data-entity="ValidSoundRecord" data-source-line="27" data-uid="ent0004" id="entity_ValidSoundRecord"><rect fill="#E6FFE6" filter="url(#f1odc9twqn9qqg)" height="251.9922" rx="7.5" ry="7.5" style="stroke:#888888;stroke-width:0.5;" width="167.7295" x="263.14" y="188.11"/><ellipse cx="286.6834" cy="207.1764" fill="#ADD1B2" rx="11" ry="11" style="stroke:#181818;stroke-width:1;"/><path d="M289.6566,212.8195 Q289.0755,213.1183 288.4363,213.2677 Q287.7972,213.4171 287.0916,213.4171 Q284.5848,213.4171 283.265,211.7653 Q281.9451,210.1134 281.9451,206.9923 Q281.9451,203.8629 283.265,202.2111 Q284.5848,200.5592 287.0916,200.5592 Q287.7972,200.5592 288.4446,200.7086 Q289.0921,200.858 289.6566,201.1569 L289.6566,203.8795 Q289.0257,203.2985 288.4322,203.0287 Q287.8387,202.7589 287.2078,202.7589 Q285.8631,202.7589 285.1783,203.8256 Q284.4935,204.8922 284.4935,206.9923 Q284.4935,209.0841 285.1783,210.1508 Q285.8631,211.2174 287.2078,211.2174 Q287.8387,211.2174 288.4322,210.9476 Q289.0257,210.6779 289.6566,210.0968 Z " fill="#000000"/><text fill="#000000" font-family="sans-serif" font-size="12" font-style="italic" lengthAdjust="spacing" textLength="79.6934" x="321.1073" y="204.7116">&#171;entity-valid&#187;</text><text fill="#000000" font-family="Helvetica" font-size="14" lengthAdjust="spacing" textLength="116.7441" x="302.5819" y="218.0231">ValidSoundRecord</text><line style="stroke:#888888;stroke-width:0.5;" x1="264.14" x2="429.8695" y1="226.2428" y2="226.2428"/><text fill="#000000" font-family="sans-serif" font-size="14" lengthAdjust="spacing" textLength="124.9268" x="269.14" y="243.778">-enabled: boolean</text><text fill="#000000" font-family="sans-serif" font-size="14" lengthAdjust="spacing" textLength="80.2266" x="269.14" y="260.2663">-key: String</text><text fill="#000000" font-family="sans-serif" font-size="14" lengthAdjust="spacing" textLength="81.6758" x="269.14" y="276.7545">-pitch: float</text><text fill="#000000" font-family="sans-serif" font-size="14" lengthAdjust="spacing" textLength="143.5957" x="269.14" y="293.2428">-playerOnly: boolean</text><text fill="#000000" font-family="sans-serif" font-size="14" lengthAdjust="spacing" textLength="137.7988" x="269.14" y="309.7311">-soundName: String</text><text fill="#000000" font-family="sans-serif" font-size="14" lengthAdjust="spacing" textLength="97.1729" x="269.14" y="326.2194">-volume: float</text><line style="stroke:#888888;stroke-width:1;" x1="264.14" x2="429.8695" y1="333.1725" y2="333.1725"/><text fill="#000000" font-family="sans-serif" font-size="14" lengthAdjust="spacing" textLength="137.0605" x="269.14" y="350.7077">+enabled(): boolean</text><text fill="#000000" font-family="sans-serif" font-size="14" lengthAdjust="spacing" textLength="92.3604" x="269.14" y="367.1959">+key(): String</text><text fill="#000000" font-family="sans-serif" font-size="14" lengthAdjust="spacing" textLength="93.8096" x="269.14" y="383.6842">+pitch(): float</text><text fill="#000000" font-family="sans-serif" font-size="14" lengthAdjust="spacing" textLength="155.7295" x="269.14" y="400.1725">+playerOnly(): boolean</text><text fill="#000000" font-family="sans-serif" font-size="14" lengthAdjust="spacing" textLength="149.9326" x="269.14" y="416.6608">+soundName(): String</text><text fill="#000000" font-family="sans-serif" font-size="14" lengthAdjust="spacing" textLength="109.3066" x="269.14" y="433.1491">+volume(): float</text></g><!--class InvalidSoundRecord--><g class="entity" data-entity="InvalidSoundRecord" data-source-line="42" data-uid="ent0005" id="entity_InvalidSoundRecord"><rect fill="#FFE6E6" filter="url(#f1odc9twqn9qqg)" height="120.0859" rx="7.5" ry="7.5" style="stroke:#888888;stroke-width:0.5;" width="158.082" x="465.96" y="254.06"/><ellipse cx="480.96" cy="273.1264" fill="#ADD1B2" rx="11" ry="11" style="stroke:#181818;stroke-width:1;"/><path d="M483.9331,278.7695 Q483.3521,279.0683 482.7129,279.2177 Q482.0738,279.3671 481.3682,279.3671 Q478.8614,279.3671 477.5415,277.7153 Q476.2217,276.0634 476.2217,272.9423 Q476.2217,269.8129 477.5415,268.1611 Q478.8614,266.5092 481.3682,266.5092 Q482.0738,266.5092 482.7212,266.6586 Q483.3687,266.808 483.9331,267.1069 L483.9331,269.8295 Q483.3023,269.2485 482.7088,268.9787 Q482.1153,268.7089 481.4844,268.7089 Q480.1397,268.7089 479.4549,269.7756 Q478.7701,270.8422 478.7701,272.9423 Q478.7701,275.0341 479.4549,276.1008 Q480.1397,277.1674 481.4844,277.1674 Q482.1153,277.1674 482.7088,276.8976 Q483.3023,276.6279 483.9331,276.0468 Z " fill="#000000"/><text fill="#000000" font-family="sans-serif" font-size="12" font-style="italic" lengthAdjust="spacing" textLength="90.6094" x="512.6963" y="270.6616">&#171;entity-invalid&#187;</text><text fill="#000000" font-family="Helvetica" font-size="14" lengthAdjust="spacing" textLength="126.082" x="494.96" y="283.9731">InvalidSoundRecord</text><line style="stroke:#888888;stroke-width:0.5;" x1="466.96" x2="623.042" y1="292.1928" y2="292.1928"/><text fill="#000000" font-family="sans-serif" font-size="14" lengthAdjust="spacing" textLength="80.2266" x="471.96" y="309.728">-key: String</text><text fill="#000000" font-family="sans-serif" font-size="14" lengthAdjust="spacing" textLength="102.6143" x="471.96" y="326.2163">-reason: String</text><line style="stroke:#888888;stroke-width:1;" x1="466.96" x2="623.042" y1="333.1694" y2="333.1694"/><text fill="#000000" font-family="sans-serif" font-size="14" lengthAdjust="spacing" textLength="92.3604" x="471.96" y="350.7045">+key(): String</text><text fill="#000000" font-family="sans-serif" font-size="14" lengthAdjust="spacing" textLength="114.748" x="471.96" y="367.1928">+reason(): String</text></g><!--reverse link SoundRecord to ValidSoundRecord--><g class="link" data-entity-1="SoundRecord" data-entity-2="ValidSoundRecord" data-source-line="52" data-uid="lnk6" id="link_SoundRecord_ValidSoundRecord"><path codeLine="52" d="M424.9861,133.8518 C417.4761,151.1118 410.79,166.48 401.47,187.9" fill="none" id="SoundRecord-backto-ValidSoundRecord" style="stroke:#444444;stroke-width:1.2;"/><polygon fill="#444444" points="427.38,128.35,420.1214,135.0067,425.3851,132.9348,427.457,138.1986,427.38,128.35" style="stroke:#444444;stroke-width:1.2;"/></g><!--reverse link SoundRecord to InvalidSoundRecord--><g class="link" data-entity-1="SoundRecord" data-entity-2="InvalidSoundRecord" data-source-line="53" data-uid="lnk7" id="link_SoundRecord_InvalidSoundRecord"><path codeLine="53" d="M467.0129,133.8522 C482.4129,169.2622 502.07,214.43 519.18,253.75" fill="none" id="SoundRecord-backto-InvalidSoundRecord" style="stroke:#444444;stroke-width:1.2;"/><polygon fill="#444444" points="464.62,128.35,464.5413,138.1985,466.6141,132.9351,471.8775,135.008,464.62,128.35" style="stroke:#444444;stroke-width:1.2;"/></g><!--SRC=[ZL9XQzim5FpkN_5eFxIbzLXALxRI5D91sq18OGc3VPJb9qTObO8a9wGb_xsMxSKlThfL1eFVdSvt9vt0S3Y4nydp_MW2i_cVoNZw64QHowLUCijU864ypwmfTFhJA6FXMFm83s6u1KlDMkeCl2sG0Cqkgz72u1i1HjQQTIDtLQqkE5z8dcjq3WPVBhlWWz5-9byH1WC2BKkZBCEvz0fR1bNcYZaNe2bxGJXwGhL2Bpaxwd96tbkP51x7tEXAvskN0cyHm7sdc_L2UWnpOrEqJS3lrOgsdr6ulKNjfT_StS4n5oY4-9WJhvYIQM3YjH1u_G-cr3jkO9RSRHGrVO4B_CeCWDGUhM0SOHQclv2NIO2ugcbXdKEEczEp6vYLNUcCp8quBQ6_m0MWPed2z0OIOnGoVG5BnJPedxNQa65IvBdqrN_3-RJxLqOLuLiemtovMNg-QBx2xrkZbOTjzQuR_XrI7qgowwxD4_Ty4eZa8LFgX8xxwGZgkW49jfUqdSUatCPaABwh_V69L4O3iYzyJgmU5joPFIXRsztNfVMFwsjty03QA_dstvujCcTq7uW_4RtUsu6suVwVO9gXY_RSnN7lplG8_LJHEm00]--></g></svg>
