<svg xmlns="http://www.w3.org/2000/svg" xmlns:xlink="http://www.w3.org/1999/xlink" contentStyleType="text/css" data-diagram-type="CLASS" height="634px" preserveAspectRatio="none" style="width:837px;height:634px;background:#F9F9F9;" version="1.1" viewBox="0 0 837 634" width="837px" zoomAndPan="magnify"><defs><filter height="300%" id="fa37m0k5syues" width="300%" x="-1" y="-1"><feGaussianBlur result="blurOut" stdDeviation="2"/><feColorMatrix in="blurOut" result="blurOut2" type="matrix" values="0 0 0 0 0 0 0 0 0 0 0 0 0 0 0 0 0 0 .4 0"/><feOffset dx="4" dy="4" in="blurOut2" result="blurOut3"/><feBlend in="SourceGraphic" in2="blurOut3" mode="normal"/></filter></defs><g><rect fill="#F9F9F9" height="634" style="stroke:none;stroke-width:1;" width="837" x="0" y="0"/><!--cluster item--><g class="cluster" data-entity="item" data-source-line="22" data-uid="ent0002" id="cluster_item"><path d="M13.5,6 L36.5059,6 A11.25,11.25 0 0 1 44.0059,13.5 L51.0059,28.4883 L815.5,28.4883 A7.5,7.5 0 0 1 823,35.9883 L823,612.2 A7.5,7.5 0 0 1 815.5,619.7 L13.5,619.7 A7.5,7.5 0 0 1 6,612.2 L6,13.5 A7.5,7.5 0 0 1 13.5,6" fill="none" filter="url(#fa37m0k5syues)" style="stroke:#000000;stroke-width:1.5;"/><line style="stroke:#000000;stroke-width:1.5;" x1="6" x2="51.0059" y1="28.4883" y2="28.4883"/><text fill="#000000" font-family="sans-serif" font-size="14" font-weight="bold" lengthAdjust="spacing" textLength="32.0059" x="10" y="21.5352">item</text></g><!--class SectionRecord--><g class="entity" data-entity="SectionRecord" data-source-line="23" data-uid="ent0003" id="entity_SectionRecord"><rect fill="#CFEFFF" filter="url(#fa37m0k5syues)" height="70.6211" rx="7.5" ry="7.5" style="stroke:#888888;stroke-width:0.5;" width="135.6074" x="346.2" y="41"/><ellipse cx="366.5011" cy="60.0664" fill="#B4A7E5" rx="11" ry="11" style="stroke:#181818;stroke-width:1;"/><path d="M362.4289,55.8315 L362.4289,53.6733 L369.8083,53.6733 L369.8083,55.8315 L367.3429,55.8315 L367.3429,63.9082 L369.8083,63.9082 L369.8083,66.0664 L362.4289,66.0664 L362.4289,63.9082 L364.8942,63.9082 L364.8942,55.8315 Z " fill="#000000"/><text fill="#000000" font-family="sans-serif" font-size="12" font-style="italic" lengthAdjust="spacing" textLength="45.4219" x="404.8818" y="57.6016">&#171;entity&#187;</text><text fill="#000000" font-family="Helvetica" font-size="14" font-style="italic" lengthAdjust="spacing" textLength="91.8271" x="381.6792" y="70.9131">SectionRecord</text><line style="stroke:#888888;stroke-width:0.5;" x1="347.2" x2="480.8074" y1="79.1328" y2="79.1328"/><line style="stroke:#888888;stroke-width:0.5;" x1="347.2" x2="480.8074" y1="87.1328" y2="87.1328"/><text fill="#000000" font-family="sans-serif" font-size="14" lengthAdjust="spacing" textLength="123.6074" x="352.2" y="104.668">+key(): RecordKey</text></g><!--class ItemRecord--><g class="entity" data-entity="ItemRecord" data-source-line="26" data-uid="ent0004" id="entity_ItemRecord"><rect fill="#CFEFFF" filter="url(#fa37m0k5syues)" height="103.5977" rx="7.5" ry="7.5" style="stroke:#888888;stroke-width:0.5;" width="543.2959" x="142.35" y="171.62"/><ellipse cx="373.5688" cy="190.6864" fill="#B4A7E5" rx="11" ry="11" style="stroke:#181818;stroke-width:1;"/><path d="M369.4965,186.4515 L369.4965,184.2933 L376.8759,184.2933 L376.8759,186.4515 L374.4105,186.4515 L374.4105,194.5282 L376.8759,194.5282 L376.8759,196.6864 L369.4965,196.6864 L369.4965,194.5282 L371.9618,194.5282 L371.9618,186.4515 Z " fill="#000000"/><text fill="#000000" font-family="sans-serif" font-size="12" font-style="italic" lengthAdjust="spacing" textLength="45.4219" x="407.537" y="188.2216">&#171;entity&#187;</text><text fill="#000000" font-family="Helvetica" font-size="14" font-style="italic" lengthAdjust="spacing" textLength="72.3584" x="394.0688" y="201.5331">ItemRecord</text><line style="stroke:#888888;stroke-width:0.5;" x1="143.35" x2="684.6459" y1="209.7528" y2="209.7528"/><line style="stroke:#888888;stroke-width:0.5;" x1="143.35" x2="684.6459" y1="217.7528" y2="217.7528"/><text fill="#000000" font-family="sans-serif" font-size="14" lengthAdjust="spacing" textLength="531.2959" x="148.35" y="235.288">+empty(itemKey: RecordKey, reason: InvalidRecordReason): InvalidItemRecord</text><text fill="#000000" font-family="sans-serif" font-size="14" lengthAdjust="spacing" textLength="265.2549" x="148.35" y="251.7763">+isValid(): Optional&lt;ValidItemRecord&gt;</text><text fill="#000000" font-family="sans-serif" font-size="14" lengthAdjust="spacing" textLength="496.5215" x="148.35" y="268.2645">+of(itemKey: ValidItemKey, itemEntry: ConfigurationSection): ItemRecord</text></g><!--class ValidItemRecord--><g class="entity" data-entity="ValidItemRecord" data-source-line="31" data-uid="ent0005" id="entity_ValidItemRecord"><rect fill="#E6FFE6" filter="url(#fa37m0k5syues)" height="268.4805" rx="7.5" ry="7.5" style="stroke:#888888;stroke-width:0.5;" width="522.8906" x="21.55" y="335.22"/><ellipse cx="227.0007" cy="354.2864" fill="#ADD1B2" rx="11" ry="11" style="stroke:#181818;stroke-width:1;"/><path d="M229.9738,359.9295 Q229.3928,360.2283 228.7536,360.3777 Q228.1145,360.5271 227.4089,360.5271 Q224.9021,360.5271 223.5822,358.8753 Q222.2624,357.2234 222.2624,354.1023 Q222.2624,350.9729 223.5822,349.3211 Q224.9021,347.6692 227.4089,347.6692 Q228.1145,347.6692 228.7619,347.8186 Q229.4094,347.968 229.9738,348.2669 L229.9738,350.9895 Q229.343,350.4085 228.7495,350.1387 Q228.156,349.8689 227.5251,349.8689 Q226.1804,349.8689 225.4956,350.9356 Q224.8107,352.0022 224.8107,354.1023 Q224.8107,356.1941 225.4956,357.2608 Q226.1804,358.3274 227.5251,358.3274 Q228.156,358.3274 228.7495,358.0576 Q229.343,357.7879 229.9738,357.2068 Z " fill="#000000"/><text fill="#000000" font-family="sans-serif" font-size="12" font-style="italic" lengthAdjust="spacing" textLength="79.6934" x="259.3986" y="351.8216">&#171;entity-valid&#187;</text><text fill="#000000" font-family="Helvetica" font-size="14" lengthAdjust="spacing" textLength="103.4893" x="247.5007" y="365.1331">ValidItemRecord</text><line style="stroke:#888888;stroke-width:0.5;" x1="22.55" x2="543.4406" y1="373.3528" y2="373.3528"/><text fill="#000000" font-family="sans-serif" font-size="14" lengthAdjust="spacing" textLength="143.7734" x="27.55" y="390.888">-displayName: String</text><text fill="#000000" font-family="sans-serif" font-size="14" lengthAdjust="spacing" textLength="162.8184" x="27.55" y="407.3763">-itemLore: List&lt;String&gt;</text><text fill="#000000" font-family="sans-serif" font-size="14" lengthAdjust="spacing" textLength="94.6504" x="27.55" y="423.8645">-key: ItemKey</text><text fill="#000000" font-family="sans-serif" font-size="14" lengthAdjust="spacing" textLength="112.3213" x="27.55" y="440.3528">-material: String</text><text fill="#000000" font-family="sans-serif" font-size="14" lengthAdjust="spacing" textLength="94.2197" x="27.55" y="456.8411">-name: String</text><text fill="#000000" font-family="sans-serif" font-size="14" lengthAdjust="spacing" textLength="134.9277" x="27.55" y="473.3294">-pluralName: String</text><line style="stroke:#888888;stroke-width:1;" x1="22.55" x2="543.4406" y1="480.2825" y2="480.2825"/><text fill="#000000" font-family="sans-serif" font-size="14" lengthAdjust="spacing" textLength="510.8906" x="27.55" y="497.8177">+create(key: ValidItemKey, section: ConfigurationSection): ValidItemRecord</text><text fill="#000000" font-family="sans-serif" font-size="14" lengthAdjust="spacing" textLength="155.9072" x="27.55" y="514.3059">+displayName(): String</text><text fill="#000000" font-family="sans-serif" font-size="14" lengthAdjust="spacing" textLength="106.7842" x="27.55" y="530.7942">+key(): ItemKey</text><text fill="#000000" font-family="sans-serif" font-size="14" lengthAdjust="spacing" textLength="141.3809" x="27.55" y="547.2825">+lore(): List&lt;String&gt;</text><text fill="#000000" font-family="sans-serif" font-size="14" lengthAdjust="spacing" textLength="124.4551" x="27.55" y="563.7708">+material(): String</text><text fill="#000000" font-family="sans-serif" font-size="14" lengthAdjust="spacing" textLength="106.3535" x="27.55" y="580.2591">+name(): String</text><text fill="#000000" font-family="sans-serif" font-size="14" lengthAdjust="spacing" textLength="147.0615" x="27.55" y="596.7473">+pluralName(): String</text></g><!--class InvalidItemRecord--><g class="entity" data-entity="InvalidItemRecord" data-source-line="47" data-uid="ent0006" id="entity_InvalidItemRecord"><rect fill="#FFE6E6" filter="url(#fa37m0k5syues)" height="120.0859" rx="7.5" ry="7.5" style="stroke:#888888;stroke-width:0.5;" width="227.1543" x="579.42" y="409.42"/><ellipse cx="632.3336" cy="428.4864" fill="#ADD1B2" rx="11" ry="11" style="stroke:#181818;stroke-width:1;"/><path d="M635.3067,434.1295 Q634.7257,434.4283 634.0865,434.5777 Q633.4473,434.7271 632.7418,434.7271 Q630.2349,434.7271 628.9151,433.0753 Q627.5953,431.4234 627.5953,428.3023 Q627.5953,425.1729 628.9151,423.5211 Q630.2349,421.8692 632.7418,421.8692 Q633.4473,421.8692 634.0948,422.0186 Q634.7423,422.168 635.3067,422.4669 L635.3067,425.1895 Q634.6759,424.6085 634.0824,424.3387 Q633.4888,424.0689 632.858,424.0689 Q631.5133,424.0689 630.8284,425.1356 Q630.1436,426.2022 630.1436,428.3023 Q630.1436,430.3941 630.8284,431.4608 Q631.5133,432.5274 632.858,432.5274 Q633.4888,432.5274 634.0824,432.2576 Q634.6759,431.9879 635.3067,431.4068 Z " fill="#000000"/><text fill="#000000" font-family="sans-serif" font-size="12" font-style="italic" lengthAdjust="spacing" textLength="90.6094" x="663.9425" y="426.0216">&#171;entity-invalid&#187;</text><text fill="#000000" font-family="Helvetica" font-size="14" lengthAdjust="spacing" textLength="112.8271" x="652.8336" y="439.3331">InvalidItemRecord</text><line style="stroke:#888888;stroke-width:0.5;" x1="580.42" x2="805.5743" y1="447.5528" y2="447.5528"/><text fill="#000000" font-family="sans-serif" font-size="14" lengthAdjust="spacing" textLength="111.4736" x="585.42" y="465.088">-key: RecordKey</text><text fill="#000000" font-family="sans-serif" font-size="14" lengthAdjust="spacing" textLength="203.0205" x="585.42" y="481.5763">-reason: InvalidRecordReason</text><line style="stroke:#888888;stroke-width:1;" x1="580.42" x2="805.5743" y1="488.5294" y2="488.5294"/><text fill="#000000" font-family="sans-serif" font-size="14" lengthAdjust="spacing" textLength="123.6074" x="585.42" y="506.0645">+key(): RecordKey</text><text fill="#000000" font-family="sans-serif" font-size="14" lengthAdjust="spacing" textLength="215.1543" x="585.42" y="522.5528">+reason(): InvalidRecordReason</text></g><!--reverse link SectionRecord to ItemRecord--><g class="link" data-entity-1="SectionRecord" data-entity-2="ItemRecord" data-source-line="57" data-uid="lnk7" id="link_SectionRecord_ItemRecord"><path codeLine="57" d="M414,118.07 C414,135.76 414,151.61 414,171.19" fill="none" id="SectionRecord-backto-ItemRecord" style="stroke:#444444;stroke-width:1.2;"/><polygon fill="#444444" points="414,112.07,410,121.07,414,117.07,418,121.07,414,112.07" style="stroke:#444444;stroke-width:1.2;"/></g><!--reverse link ItemRecord to ValidItemRecord--><g class="link" data-entity-1="ItemRecord" data-entity-2="ValidItemRecord" data-source-line="58" data-uid="lnk8" id="link_ItemRecord_ValidItemRecord"><path codeLine="58" d="M383.7006,280.8656 C374.2406,298.4756 366.01,313.81 354.69,334.9" fill="none" id="ItemRecord-backto-ValidItemRecord" style="stroke:#444444;stroke-width:1.2;"/><polygon fill="#444444" points="386.54,275.58,378.7571,281.6155,384.1738,279.9847,385.8046,285.4014,386.54,275.58" style="stroke:#444444;stroke-width:1.2;"/></g><!--reverse link ItemRecord to InvalidItemRecord--><g class="link" data-entity-1="ItemRecord" data-entity-2="InvalidItemRecord" data-source-line="59" data-uid="lnk9" id="link_ItemRecord_InvalidItemRecord"><path codeLine="59" d="M491.6768,279.124 C516.1768,297.214 538.44,314.63 562,335.22 C588.26,358.17 615.56,385.34 638.41,409.14" fill="none" id="ItemRecord-backto-InvalidItemRecord" style="stroke:#444444;stroke-width:1.2;"/><polygon fill="#444444" points="486.85,275.56,491.7142,284.1238,490.8723,278.53,496.4662,277.6881,486.85,275.56" style="stroke:#444444;stroke-width:1.2;"/></g><!--SRC=[ZLJHRjem57tFLror3mNHJ6FQgXK14gss3WsrKa58UtIJcs0biIFR56KL_puxZi2O1Csy-PoSU-wvrzp0P3A1fyNBmsm1ozMVnVpvoLm5CgEi988Ky4QYB1Lyo-97ddC1rycz-JaCkI4ntr6MWX9RT83cAy5GmF2R0yo4uBj6xcjzV72reL76K4eOVlhYWpyvKqlw5s4uTA1I6oKfhgZAySXmbQESI6cWPr8WNFt2_1qLZSYLpvaf9UZRLk4yugpM-UnJu2C0UF2osMseGdFFHOoYQV1xVOBz_oYCnyWKLTLq2jTHWacIT7F2TvBJs33nBadmxWAJiWFNC3Lt7mHDNg0j5xKN0CeKYeH424kC5ENi5IFT2ZYsBD6S0MHOzVeZiAJVMDNGtbEQQ_dBCbYKgkeP6rh3aRi5WKHoDeAvzM-Hr_goVxWz5d0qgLmRpDXxAKqd91-lJzbJXywJO_q3hRPWhdym9JJmo5b2qwqWHgy9oDWuhM_xjnFsAiBPw8unX11JMUQaChivWgLUG9OwgF6nu4932ohLsE9JXv0PxurjvxeWUX2Kv2sIhBrIcUiMytORePDPfAUZi9UTPoPjDfs9hJl7vcHWHkULFsoSt-O0zBRNNxI6CpYaq2hAkgeTa_1WTyPdMmWjp-x37zJfcx70XMrldq3h-xEGrUhrkzNsvZ_W1kCKPU2zzZ1qbzhjJ2F-y3pu_57-0m00]--></g></svg>
