<svg xmlns="http://www.w3.org/2000/svg" xmlns:xlink="http://www.w3.org/1999/xlink" contentStyleType="text/css" data-diagram-type="CLASS" height="503px" preserveAspectRatio="none" style="width:837px;height:503px;background:#F9F9F9;" version="1.1" viewBox="0 0 837 503" width="837px" zoomAndPan="magnify"><defs><filter height="300%" id="f33yodbx0qh7t" width="300%" x="-1" y="-1"><feGaussianBlur result="blurOut" stdDeviation="2"/><feColorMatrix in="blurOut" result="blurOut2" type="matrix" values="0 0 0 0 0 0 0 0 0 0 0 0 0 0 0 0 0 0 .4 0"/><feOffset dx="4" dy="4" in="blurOut2" result="blurOut3"/><feBlend in="SourceGraphic" in2="blurOut3" mode="normal"/></filter></defs><g><rect fill="#F9F9F9" height="503" style="stroke:none;stroke-width:1;" width="837" x="0" y="0"/><!--cluster item--><g class="cluster" data-entity="item" data-source-line="22" data-uid="ent0002" id="cluster_item"><path d="M13.5,6 L36.5059,6 A11.25,11.25 0 0 1 44.0059,13.5 L51.0059,28.4883 L815.5,28.4883 A7.5,7.5 0 0 1 823,35.9883 L823,481.58 A7.5,7.5 0 0 1 815.5,489.08 L13.5,489.08 A7.5,7.5 0 0 1 6,481.58 L6,13.5 A7.5,7.5 0 0 1 13.5,6" fill="none" filter="url(#f33yodbx0qh7t)" style="stroke:#000000;stroke-width:1.5;"/><line style="stroke:#000000;stroke-width:1.5;" x1="6" x2="51.0059" y1="28.4883" y2="28.4883"/><text fill="#000000" font-family="sans-serif" font-size="14" font-weight="bold" lengthAdjust="spacing" textLength="32.0059" x="10" y="21.5352">item</text></g><!--class ItemRecord--><g class="entity" data-entity="ItemRecord" data-source-line="23" data-uid="ent0003" id="entity_ItemRecord"><rect fill="#CFEFFF" filter="url(#f33yodbx0qh7t)" height="103.5977" rx="7.5" ry="7.5" style="stroke:#888888;stroke-width:0.5;" width="543.2959" x="142.35" y="41"/><ellipse cx="373.5688" cy="60.0664" fill="#B4A7E5" rx="11" ry="11" style="stroke:#181818;stroke-width:1;"/><path d="M369.4965,55.8315 L369.4965,53.6733 L376.8759,53.6733 L376.8759,55.8315 L374.4105,55.8315 L374.4105,63.9082 L376.8759,63.9082 L376.8759,66.0664 L369.4965,66.0664 L369.4965,63.9082 L371.9618,63.9082 L371.9618,55.8315 Z " fill="#000000"/><text fill="#000000" font-family="sans-serif" font-size="12" font-style="italic" lengthAdjust="spacing" textLength="45.4219" x="407.537" y="57.6016">&#171;entity&#187;</text><text fill="#000000" font-family="Helvetica" font-size="14" font-style="italic" lengthAdjust="spacing" textLength="72.3584" x="394.0688" y="70.9131">ItemRecord</text><line style="stroke:#888888;stroke-width:0.5;" x1="143.35" x2="684.6459" y1="79.1328" y2="79.1328"/><line style="stroke:#888888;stroke-width:0.5;" x1="143.35" x2="684.6459" y1="87.1328" y2="87.1328"/><text fill="#000000" font-family="sans-serif" font-size="14" lengthAdjust="spacing" textLength="531.2959" x="148.35" y="104.668">+empty(itemKey: RecordKey, reason: InvalidRecordReason): InvalidItemRecord</text><text fill="#000000" font-family="sans-serif" font-size="14" lengthAdjust="spacing" textLength="265.2549" x="148.35" y="121.1563">+isValid(): Optional&lt;ValidItemRecord&gt;</text><text fill="#000000" font-family="sans-serif" font-size="14" lengthAdjust="spacing" textLength="496.5215" x="148.35" y="137.6445">+of(itemKey: ValidItemKey, itemEntry: ConfigurationSection): ItemRecord</text></g><!--class ValidItemRecord--><g class="entity" data-entity="ValidItemRecord" data-source-line="28" data-uid="ent0004" id="entity_ValidItemRecord"><rect fill="#E6FFE6" filter="url(#f33yodbx0qh7t)" height="268.4805" rx="7.5" ry="7.5" style="stroke:#888888;stroke-width:0.5;" width="522.8906" x="21.55" y="204.6"/><ellipse cx="227.0007" cy="223.6664" fill="#ADD1B2" rx="11" ry="11" style="stroke:#181818;stroke-width:1;"/><path d="M229.9738,229.3095 Q229.3928,229.6083 228.7536,229.7577 Q228.1145,229.9071 227.4089,229.9071 Q224.9021,229.9071 223.5822,228.2553 Q222.2624,226.6034 222.2624,223.4823 Q222.2624,220.3529 223.5822,218.7011 Q224.9021,217.0492 227.4089,217.0492 Q228.1145,217.0492 228.7619,217.1986 Q229.4094,217.348 229.9738,217.6469 L229.9738,220.3695 Q229.343,219.7885 228.7495,219.5187 Q228.156,219.2489 227.5251,219.2489 Q226.1804,219.2489 225.4956,220.3156 Q224.8107,221.3822 224.8107,223.4823 Q224.8107,225.5741 225.4956,226.6408 Q226.1804,227.7074 227.5251,227.7074 Q228.156,227.7074 228.7495,227.4376 Q229.343,227.1679 229.9738,226.5868 Z " fill="#000000"/><text fill="#000000" font-family="sans-serif" font-size="12" font-style="italic" lengthAdjust="spacing" textLength="79.6934" x="259.3986" y="221.2016">&#171;entity-valid&#187;</text><text fill="#000000" font-family="Helvetica" font-size="14" lengthAdjust="spacing" textLength="103.4893" x="247.5007" y="234.5131">ValidItemRecord</text><line style="stroke:#888888;stroke-width:0.5;" x1="22.55" x2="543.4406" y1="242.7328" y2="242.7328"/><text fill="#000000" font-family="sans-serif" font-size="14" lengthAdjust="spacing" textLength="143.7734" x="27.55" y="260.268">-displayName: String</text><text fill="#000000" font-family="sans-serif" font-size="14" lengthAdjust="spacing" textLength="162.8184" x="27.55" y="276.7562">-itemLore: List&lt;String&gt;</text><text fill="#000000" font-family="sans-serif" font-size="14" lengthAdjust="spacing" textLength="94.6504" x="27.55" y="293.2445">-key: ItemKey</text><text fill="#000000" font-family="sans-serif" font-size="14" lengthAdjust="spacing" textLength="112.3213" x="27.55" y="309.7328">-material: String</text><text fill="#000000" font-family="sans-serif" font-size="14" lengthAdjust="spacing" textLength="94.2197" x="27.55" y="326.2211">-name: String</text><text fill="#000000" font-family="sans-serif" font-size="14" lengthAdjust="spacing" textLength="134.9277" x="27.55" y="342.7094">-pluralName: String</text><line style="stroke:#888888;stroke-width:1;" x1="22.55" x2="543.4406" y1="349.6625" y2="349.6625"/><text fill="#000000" font-family="sans-serif" font-size="14" lengthAdjust="spacing" textLength="510.8906" x="27.55" y="367.1977">+create(key: ValidItemKey, section: ConfigurationSection): ValidItemRecord</text><text fill="#000000" font-family="sans-serif" font-size="14" lengthAdjust="spacing" textLength="155.9072" x="27.55" y="383.6859">+displayName(): String</text><text fill="#000000" font-family="sans-serif" font-size="14" lengthAdjust="spacing" textLength="106.7842" x="27.55" y="400.1742">+key(): ItemKey</text><text fill="#000000" font-family="sans-serif" font-size="14" lengthAdjust="spacing" textLength="141.3809" x="27.55" y="416.6625">+lore(): List&lt;String&gt;</text><text fill="#000000" font-family="sans-serif" font-size="14" lengthAdjust="spacing" textLength="124.4551" x="27.55" y="433.1508">+material(): String</text><text fill="#000000" font-family="sans-serif" font-size="14" lengthAdjust="spacing" textLength="106.3535" x="27.55" y="449.6391">+name(): String</text><text fill="#000000" font-family="sans-serif" font-size="14" lengthAdjust="spacing" textLength="147.0615" x="27.55" y="466.1273">+pluralName(): String</text></g><!--class InvalidItemRecord--><g class="entity" data-entity="InvalidItemRecord" data-source-line="44" data-uid="ent0005" id="entity_InvalidItemRecord"><rect fill="#FFE6E6" filter="url(#f33yodbx0qh7t)" height="120.0859" rx="7.5" ry="7.5" style="stroke:#888888;stroke-width:0.5;" width="227.1543" x="579.42" y="278.8"/><ellipse cx="632.3336" cy="297.8664" fill="#ADD1B2" rx="11" ry="11" style="stroke:#181818;stroke-width:1;"/><path d="M635.3067,303.5095 Q634.7257,303.8083 634.0865,303.9577 Q633.4473,304.1071 632.7418,304.1071 Q630.2349,304.1071 628.9151,302.4553 Q627.5953,300.8034 627.5953,297.6823 Q627.5953,294.5529 628.9151,292.9011 Q630.2349,291.2492 632.7418,291.2492 Q633.4473,291.2492 634.0948,291.3986 Q634.7423,291.548 635.3067,291.8469 L635.3067,294.5695 Q634.6759,293.9885 634.0824,293.7187 Q633.4888,293.4489 632.858,293.4489 Q631.5133,293.4489 630.8284,294.5156 Q630.1436,295.5822 630.1436,297.6823 Q630.1436,299.7741 630.8284,300.8408 Q631.5133,301.9074 632.858,301.9074 Q633.4888,301.9074 634.0824,301.6376 Q634.6759,301.3679 635.3067,300.7868 Z " fill="#000000"/><text fill="#000000" font-family="sans-serif" font-size="12" font-style="italic" lengthAdjust="spacing" textLength="90.6094" x="663.9425" y="295.4016">&#171;entity-invalid&#187;</text><text fill="#000000" font-family="Helvetica" font-size="14" lengthAdjust="spacing" textLength="112.8271" x="652.8336" y="308.7131">InvalidItemRecord</text><line style="stroke:#888888;stroke-width:0.5;" x1="580.42" x2="805.5743" y1="316.9328" y2="316.9328"/><text fill="#000000" font-family="sans-serif" font-size="14" lengthAdjust="spacing" textLength="111.4736" x="585.42" y="334.468">-key: RecordKey</text><text fill="#000000" font-family="sans-serif" font-size="14" lengthAdjust="spacing" textLength="203.0205" x="585.42" y="350.9563">-reason: InvalidRecordReason</text><line style="stroke:#888888;stroke-width:1;" x1="580.42" x2="805.5743" y1="357.9094" y2="357.9094"/><text fill="#000000" font-family="sans-serif" font-size="14" lengthAdjust="spacing" textLength="123.6074" x="585.42" y="375.4445">+key(): RecordKey</text><text fill="#000000" font-family="sans-serif" font-size="14" lengthAdjust="spacing" textLength="215.1543" x="585.42" y="391.9328">+reason(): InvalidRecordReason</text></g><!--reverse link ItemRecord to ValidItemRecord--><g class="link" data-entity-1="ItemRecord" data-entity-2="ValidItemRecord" data-source-line="54" data-uid="lnk6" id="link_ItemRecord_ValidItemRecord"><path codeLine="54" d="M383.7006,150.2456 C374.2406,167.8556 366.01,183.19 354.69,204.28" fill="none" id="ItemRecord-backto-ValidItemRecord" style="stroke:#444444;stroke-width:1.2;"/><polygon fill="#444444" points="386.54,144.96,378.7571,150.9955,384.1738,149.3647,385.8046,154.7814,386.54,144.96" style="stroke:#444444;stroke-width:1.2;"/></g><!--reverse link ItemRecord to InvalidItemRecord--><g class="link" data-entity-1="ItemRecord" data-entity-2="InvalidItemRecord" data-source-line="55" data-uid="lnk7" id="link_ItemRecord_InvalidItemRecord"><path codeLine="55" d="M491.6768,148.504 C516.1768,166.594 538.44,184.01 562,204.6 C588.26,227.55 615.56,254.72 638.41,278.52" fill="none" id="ItemRecord-backto-InvalidItemRecord" style="stroke:#444444;stroke-width:1.2;"/><polygon fill="#444444" points="486.85,144.94,491.7142,153.5038,490.8723,147.91,496.4662,147.0681,486.85,144.94" style="stroke:#444444;stroke-width:1.2;"/></g><!--SRC=[ZLFlQzim4Ftkl-9eFzJ1zLZ6LjQG1DAoTM6cXIO4zb6rpuwmBHb9QSXA_lT9jh5L_oXJ80dtdkxUlJjTmMAnW8VWwMuLm6Rx9rW_FfYG8rFA2Y983YyaJ1F13oowvnaNS1dVce_5a7iIyIDb2IXnG0keRmc60gRVB60b13_MwRwMfmjkzpHC6Ke9qqzVkk1FpjI6_aMOJYseq499WbkgCcmPTkOm8r8Qw97a21U_C7j5HKDoqUMib1BqvQ1m7N9MvldSfS2R0t3NyUQufmfDd8i8HTtWz_8uv__9C9yZKrITbaku36ECutYSux-IZ4Q6YJTnZ3SVC2bhk8QfkMV7gVq2BJaljG1Gfb3494HOw-0pXheFi3HLB7CymBnG9zTS_esd6LHa_VSQ11B9sGpMLTKAUIw3aoRQ5h1oKhapcAjfJuMYd95ildlFNbfq7hVr6refmOH_C2KqSCzPJ9E382RV1aFpOsIyhtyklwkvT2f2p_3M1XyYAekCdCn6pM2ZruOb5cfq15neAA1IpIjyQH5IexsMROLpeWT1IJQGaWrNAZBTOZOimxSy2_Lq5BfftpDPUJFgs6vqR9O7PdITyfvfqftqs_H0xsXvOz0Sht5XC2aRgzOwqO7j6VUs40OUorjtKCsIMy07spuyWTgDVYwlpkLEnhETpSkzmYX1wTZYVRytdmxSVtV_0000]--></g></svg>
