<svg xmlns="http://www.w3.org/2000/svg" xmlns:xlink="http://www.w3.org/1999/xlink" contentStyleType="text/css" data-diagram-type="CLASS" height="799px" preserveAspectRatio="none" style="width:1218px;height:799px;background:#F9F9F9;" version="1.1" viewBox="0 0 1218 799" width="1218px" zoomAndPan="magnify"><defs><filter height="300%" id="f11hczu3z540ya" width="300%" x="-1" y="-1"><feGaussianBlur result="blurOut" stdDeviation="2"/><feColorMatrix in="blurOut" result="blurOut2" type="matrix" values="0 0 0 0 0 0 0 0 0 0 0 0 0 0 0 0 0 0 .4 0"/><feOffset dx="4" dy="4" in="blurOut2" result="blurOut3"/><feBlend in="SourceGraphic" in2="blurOut3" mode="normal"/></filter></defs><g><rect fill="#F9F9F9" height="799" style="stroke:none;stroke-width:1;" width="1218" x="0" y="0"/><!--cluster message--><g class="cluster" data-entity="message" data-source-line="22" data-uid="ent0002" id="cluster_message"><path d="M13.5,6 L67.7803,6 A11.25,11.25 0 0 1 75.2803,13.5 L82.2803,28.4883 L1196.5,28.4883 A7.5,7.5 0 0 1 1204,35.9883 L1204,777.08 A7.5,7.5 0 0 1 1196.5,784.58 L13.5,784.58 A7.5,7.5 0 0 1 6,777.08 L6,13.5 A7.5,7.5 0 0 1 13.5,6" fill="none" filter="url(#f11hczu3z540ya)" style="stroke:#000000;stroke-width:1.5;"/><line style="stroke:#000000;stroke-width:1.5;" x1="6" x2="82.2803" y1="28.4883" y2="28.4883"/><text fill="#000000" font-family="sans-serif" font-size="14" font-weight="bold" lengthAdjust="spacing" textLength="63.2803" x="10" y="21.5352">message</text></g><!--class SectionRecord--><g class="entity" data-entity="SectionRecord" data-source-line="23" data-uid="ent0003" id="entity_SectionRecord"><rect fill="#CFEFFF" filter="url(#f11hczu3z540ya)" height="70.6211" rx="7.5" ry="7.5" style="stroke:#888888;stroke-width:0.5;" width="135.6074" x="713.2" y="41"/><ellipse cx="733.5011" cy="60.0664" fill="#B4A7E5" rx="11" ry="11" style="stroke:#181818;stroke-width:1;"/><path d="M729.4289,55.8315 L729.4289,53.6733 L736.8083,53.6733 L736.8083,55.8315 L734.3429,55.8315 L734.3429,63.9082 L736.8083,63.9082 L736.8083,66.0664 L729.4289,66.0664 L729.4289,63.9082 L731.8942,63.9082 L731.8942,55.8315 Z " fill="#000000"/><text fill="#000000" font-family="sans-serif" font-size="12" font-style="italic" lengthAdjust="spacing" textLength="45.4219" x="771.8818" y="57.6016">&#171;entity&#187;</text><text fill="#000000" font-family="Helvetica" font-size="14" font-style="italic" lengthAdjust="spacing" textLength="91.8271" x="748.6792" y="70.9131">SectionRecord</text><line style="stroke:#888888;stroke-width:0.5;" x1="714.2" x2="847.8074" y1="79.1328" y2="79.1328"/><line style="stroke:#888888;stroke-width:0.5;" x1="714.2" x2="847.8074" y1="87.1328" y2="87.1328"/><text fill="#000000" font-family="sans-serif" font-size="14" lengthAdjust="spacing" textLength="123.6074" x="719.2" y="104.668">+key(): RecordKey</text></g><!--class MessageRecord--><g class="entity" data-entity="MessageRecord" data-source-line="27" data-uid="ent0004" id="entity_MessageRecord"><rect fill="#CFEFFF" filter="url(#f11hczu3z540ya)" height="87.1094" rx="7.5" ry="7.5" style="stroke:#888888;stroke-width:0.5;" width="623.5293" x="469.24" y="171.62"/><ellipse cx="725.7859" cy="190.6864" fill="#B4A7E5" rx="11" ry="11" style="stroke:#181818;stroke-width:1;"/><path d="M721.7136,186.4515 L721.7136,184.2933 L729.093,184.2933 L729.093,186.4515 L726.6277,186.4515 L726.6277,194.5282 L729.093,194.5282 L729.093,196.6864 L721.7136,196.6864 L721.7136,194.5282 L724.179,194.5282 L724.179,186.4515 Z " fill="#000000"/><text fill="#000000" font-family="sans-serif" font-size="12" font-style="italic" lengthAdjust="spacing" textLength="45.4219" x="774.5437" y="188.2216">&#171;entity&#187;</text><text fill="#000000" font-family="Helvetica" font-size="14" font-style="italic" lengthAdjust="spacing" textLength="101.9375" x="746.2859" y="201.5331">MessageRecord</text><line style="stroke:#888888;stroke-width:0.5;" x1="470.24" x2="1091.7693" y1="209.7528" y2="209.7528"/><line style="stroke:#888888;stroke-width:0.5;" x1="470.24" x2="1091.7693" y1="217.7528" y2="217.7528"/><text fill="#000000" font-family="sans-serif" font-size="14" lengthAdjust="spacing" textLength="588.7998" x="475.24" y="235.288">+empty(messageKey: RecordKey, reason: InvalidRecordReason): InvalidMessageRecord</text><text fill="#000000" font-family="sans-serif" font-size="14" lengthAdjust="spacing" textLength="611.5293" x="475.24" y="251.7763">+of(messageKey: ValidMessageKey, messageEntry: ConfigurationSection): MessageRecord</text></g><!--class ValidMessageRecord--><g class="entity" data-entity="ValidMessageRecord" data-source-line="32" data-uid="ent0005" id="entity_ValidMessageRecord"><rect fill="#E6FFE6" filter="url(#f11hczu3z540ya)" height="367.4102" rx="7.5" ry="7.5" style="stroke:#888888;stroke-width:0.5;" width="579.3965" x="22.3" y="359.95"/><ellipse cx="241.2141" cy="379.0164" fill="#ADD1B2" rx="11" ry="11" style="stroke:#181818;stroke-width:1;"/><path d="M244.1872,384.6595 Q243.6062,384.9583 242.967,385.1077 Q242.3278,385.2571 241.6223,385.2571 Q239.1154,385.2571 237.7956,383.6053 Q236.4758,381.9534 236.4758,378.8323 Q236.4758,375.7029 237.7956,374.0511 Q239.1154,372.3992 241.6223,372.3992 Q242.3278,372.3992 242.9753,372.5486 Q243.6228,372.698 244.1872,372.9969 L244.1872,375.7195 Q243.5563,375.1385 242.9628,374.8687 Q242.3693,374.5989 241.7385,374.5989 Q240.3938,374.5989 239.7089,375.6656 Q239.0241,376.7322 239.0241,378.8323 Q239.0241,380.9241 239.7089,381.9908 Q240.3938,383.0574 241.7385,383.0574 Q242.3693,383.0574 242.9628,382.7876 Q243.5563,382.5179 244.1872,381.9368 Z " fill="#000000"/><text fill="#000000" font-family="sans-serif" font-size="12" font-style="italic" lengthAdjust="spacing" textLength="79.6934" x="288.4016" y="376.5516">&#171;entity-valid&#187;</text><text fill="#000000" font-family="Helvetica" font-size="14" lengthAdjust="spacing" textLength="133.0684" x="261.7141" y="389.8631">ValidMessageRecord</text><line style="stroke:#888888;stroke-width:0.5;" x1="23.3" x2="600.6965" y1="398.0828" y2="398.0828"/><text fill="#000000" font-family="sans-serif" font-size="14" lengthAdjust="spacing" textLength="124.9268" x="28.3" y="415.618">-enabled: boolean</text><text fill="#000000" font-family="sans-serif" font-size="14" lengthAdjust="spacing" textLength="156.6934" x="28.3" y="432.1063">-key: ValidMessageKey</text><text fill="#000000" font-family="sans-serif" font-size="14" lengthAdjust="spacing" textLength="116.334" x="28.3" y="448.5945">-message: String</text><text fill="#000000" font-family="sans-serif" font-size="14" lengthAdjust="spacing" textLength="156.6523" x="28.3" y="465.0828">-repeatDelay: Duration</text><text fill="#000000" font-family="sans-serif" font-size="14" lengthAdjust="spacing" textLength="107.9326" x="28.3" y="481.5711">-subtitle: String</text><text fill="#000000" font-family="sans-serif" font-size="14" lengthAdjust="spacing" textLength="83.2959" x="28.3" y="498.0594">-title: String</text><text fill="#000000" font-family="sans-serif" font-size="14" lengthAdjust="spacing" textLength="147.1025" x="28.3" y="514.5477">-titleFadeIn: Duration</text><text fill="#000000" font-family="sans-serif" font-size="14" lengthAdjust="spacing" textLength="159.1816" x="28.3" y="531.0359">-titleFadeOut: Duration</text><text fill="#000000" font-family="sans-serif" font-size="14" lengthAdjust="spacing" textLength="130.3545" x="28.3" y="547.5242">-titleStay: Duration</text><line style="stroke:#888888;stroke-width:1;" x1="23.3" x2="600.6965" y1="554.4773" y2="554.4773"/><text fill="#000000" font-family="sans-serif" font-size="14" lengthAdjust="spacing" textLength="567.3965" x="28.3" y="572.0125">+create(key: ValidMessageKey, section: ConfigurationSection): ValidMessageRecord</text><text fill="#000000" font-family="sans-serif" font-size="14" lengthAdjust="spacing" textLength="137.0605" x="28.3" y="588.5008">+enabled(): boolean</text><text fill="#000000" font-family="sans-serif" font-size="14" lengthAdjust="spacing" textLength="168.8271" x="28.3" y="604.9891">+key(): ValidMessageKey</text><text fill="#000000" font-family="sans-serif" font-size="14" lengthAdjust="spacing" textLength="128.4678" x="28.3" y="621.4773">+message(): String</text><text fill="#000000" font-family="sans-serif" font-size="14" lengthAdjust="spacing" textLength="168.7861" x="28.3" y="637.9656">+repeatDelay(): Duration</text><text fill="#000000" font-family="sans-serif" font-size="14" lengthAdjust="spacing" textLength="120.0664" x="28.3" y="654.4539">+subtitle(): String</text><text fill="#000000" font-family="sans-serif" font-size="14" lengthAdjust="spacing" textLength="95.4297" x="28.3" y="670.9422">+title(): String</text><text fill="#000000" font-family="sans-serif" font-size="14" lengthAdjust="spacing" textLength="159.2363" x="28.3" y="687.4305">+titleFadeIn(): Duration</text><text fill="#000000" font-family="sans-serif" font-size="14" lengthAdjust="spacing" textLength="171.3154" x="28.3" y="703.9188">+titleFadeOut(): Duration</text><text fill="#000000" font-family="sans-serif" font-size="14" lengthAdjust="spacing" textLength="142.4883" x="28.3" y="720.407">+titleStay(): Duration</text></g><!--class FinalMessageRecord--><g class="entity" data-entity="FinalMessageRecord" data-source-line="55" data-uid="ent0006" id="entity_FinalMessageRecord"><rect fill="#E6FFE6" filter="url(#f11hczu3z540ya)" height="449.8516" rx="7.5" ry="7.5" style="stroke:#888888;stroke-width:0.5;" width="289.3818" x="636.31" y="318.73"/><ellipse cx="710.6098" cy="337.7964" fill="#ADD1B2" rx="11" ry="11" style="stroke:#181818;stroke-width:1;"/><path d="M713.5829,343.4395 Q713.0019,343.7383 712.3627,343.8877 Q711.7236,344.0371 711.018,344.0371 Q708.5112,344.0371 707.1913,342.3853 Q705.8715,340.7334 705.8715,337.6123 Q705.8715,334.4829 707.1913,332.8311 Q708.5112,331.1792 711.018,331.1792 Q711.7236,331.1792 712.371,331.3286 Q713.0185,331.478 713.5829,331.7769 L713.5829,334.4995 Q712.9521,333.9185 712.3586,333.6487 Q711.7651,333.3789 711.1342,333.3789 Q709.7895,333.3789 709.1047,334.4456 Q708.4199,335.5122 708.4199,337.6123 Q708.4199,339.7041 709.1047,340.7708 Q709.7895,341.8374 711.1342,341.8374 Q711.7651,341.8374 712.3586,341.5676 Q712.9521,341.2979 713.5829,340.7168 Z " fill="#000000"/><text fill="#000000" font-family="sans-serif" font-size="12" font-style="italic" lengthAdjust="spacing" textLength="79.6934" x="757.4042" y="335.3316">&#171;entity-valid&#187;</text><text fill="#000000" font-family="Helvetica" font-size="14" lengthAdjust="spacing" textLength="132.2822" x="731.1098" y="348.6431">FinalMessageRecord</text><line style="stroke:#888888;stroke-width:0.5;" x1="637.31" x2="924.6918" y1="356.8628" y2="356.8628"/><text fill="#000000" font-family="sans-serif" font-size="14" lengthAdjust="spacing" textLength="124.9268" x="642.31" y="374.398">-enabled: boolean</text><text fill="#000000" font-family="sans-serif" font-size="14" lengthAdjust="spacing" textLength="265.248" x="642.31" y="390.8863">-finalMessageString: Optional&lt;String&gt;</text><text fill="#000000" font-family="sans-serif" font-size="14" lengthAdjust="spacing" textLength="258.2617" x="642.31" y="407.3745">-finalSubtitleString: Optional&lt;String&gt;</text><text fill="#000000" font-family="sans-serif" font-size="14" lengthAdjust="spacing" textLength="236.8379" x="642.31" y="423.8628">-finalTitleString: Optional&lt;String&gt;</text><text fill="#000000" font-family="sans-serif" font-size="14" lengthAdjust="spacing" textLength="156.6934" x="642.31" y="440.3511">-key: ValidMessageKey</text><text fill="#000000" font-family="sans-serif" font-size="14" lengthAdjust="spacing" textLength="116.334" x="642.31" y="456.8394">-message: String</text><text fill="#000000" font-family="sans-serif" font-size="14" lengthAdjust="spacing" textLength="156.6523" x="642.31" y="473.3277">-repeatDelay: Duration</text><text fill="#000000" font-family="sans-serif" font-size="14" lengthAdjust="spacing" textLength="107.9326" x="642.31" y="489.8159">-subtitle: String</text><text fill="#000000" font-family="sans-serif" font-size="14" lengthAdjust="spacing" textLength="83.2959" x="642.31" y="506.3042">-title: String</text><text fill="#000000" font-family="sans-serif" font-size="14" lengthAdjust="spacing" textLength="147.1025" x="642.31" y="522.7925">-titleFadeIn: Duration</text><text fill="#000000" font-family="sans-serif" font-size="14" lengthAdjust="spacing" textLength="159.1816" x="642.31" y="539.2808">-titleFadeOut: Duration</text><text fill="#000000" font-family="sans-serif" font-size="14" lengthAdjust="spacing" textLength="130.3545" x="642.31" y="555.7691">-titleStay: Duration</text><line style="stroke:#888888;stroke-width:1;" x1="637.31" x2="924.6918" y1="562.7222" y2="562.7222"/><text fill="#000000" font-family="sans-serif" font-size="14" lengthAdjust="spacing" textLength="137.0605" x="642.31" y="580.2573">+enabled(): boolean</text><text fill="#000000" font-family="sans-serif" font-size="14" lengthAdjust="spacing" textLength="277.3818" x="642.31" y="596.7456">+finalMessageString(): Optional&lt;String&gt;</text><text fill="#000000" font-family="sans-serif" font-size="14" lengthAdjust="spacing" textLength="270.3955" x="642.31" y="613.2339">+finalSubtitleString(): Optional&lt;String&gt;</text><text fill="#000000" font-family="sans-serif" font-size="14" lengthAdjust="spacing" textLength="248.9717" x="642.31" y="629.7222">+finalTitleString(): Optional&lt;String&gt;</text><text fill="#000000" font-family="sans-serif" font-size="14" lengthAdjust="spacing" textLength="168.8271" x="642.31" y="646.2105">+key(): ValidMessageKey</text><text fill="#000000" font-family="sans-serif" font-size="14" lengthAdjust="spacing" textLength="128.4678" x="642.31" y="662.6988">+message(): String</text><text fill="#000000" font-family="sans-serif" font-size="14" lengthAdjust="spacing" textLength="168.7861" x="642.31" y="679.187">+repeatDelay(): Duration</text><text fill="#000000" font-family="sans-serif" font-size="14" lengthAdjust="spacing" textLength="120.0664" x="642.31" y="695.6753">+subtitle(): String</text><text fill="#000000" font-family="sans-serif" font-size="14" lengthAdjust="spacing" textLength="95.4297" x="642.31" y="712.1636">+title(): String</text><text fill="#000000" font-family="sans-serif" font-size="14" lengthAdjust="spacing" textLength="159.2363" x="642.31" y="728.6519">+titleFadeIn(): Duration</text><text fill="#000000" font-family="sans-serif" font-size="14" lengthAdjust="spacing" textLength="171.3154" x="642.31" y="745.1402">+titleFadeOut(): Duration</text><text fill="#000000" font-family="sans-serif" font-size="14" lengthAdjust="spacing" textLength="142.4883" x="642.31" y="761.6284">+titleStay(): Duration</text></g><!--class InvalidMessageRecord--><g class="entity" data-entity="InvalidMessageRecord" data-source-line="83" data-uid="ent0007" id="entity_InvalidMessageRecord"><rect fill="#FFE6E6" filter="url(#f11hczu3z540ya)" height="120.0859" rx="7.5" ry="7.5" style="stroke:#888888;stroke-width:0.5;" width="227.1543" x="960.42" y="483.61"/><ellipse cx="999.1566" cy="502.6764" fill="#ADD1B2" rx="11" ry="11" style="stroke:#181818;stroke-width:1;"/><path d="M1002.1298,508.3195 Q1001.5487,508.6183 1000.9096,508.7677 Q1000.2704,508.9171 999.5648,508.9171 Q997.058,508.9171 995.7382,507.2653 Q994.4183,505.6134 994.4183,502.4923 Q994.4183,499.3629 995.7382,497.7111 Q997.058,496.0592 999.5648,496.0592 Q1000.2704,496.0592 1000.9179,496.2086 Q1001.5653,496.358 1002.1298,496.6569 L1002.1298,499.3795 Q1001.4989,498.7985 1000.9054,498.5287 Q1000.3119,498.2589 999.681,498.2589 Q998.3363,498.2589 997.6515,499.3256 Q996.9667,500.3922 996.9667,502.4923 Q996.9667,504.5841 997.6515,505.6508 Q998.3363,506.7174 999.681,506.7174 Q1000.3119,506.7174 1000.9054,506.4476 Q1001.4989,506.1779 1002.1298,505.5968 Z " fill="#000000"/><text fill="#000000" font-family="sans-serif" font-size="12" font-style="italic" lengthAdjust="spacing" textLength="90.6094" x="1044.3299" y="500.2116">&#171;entity-invalid&#187;</text><text fill="#000000" font-family="Helvetica" font-size="14" lengthAdjust="spacing" textLength="142.4063" x="1018.4314" y="513.5231">InvalidMessageRecord</text><line style="stroke:#888888;stroke-width:0.5;" x1="961.42" x2="1186.5743" y1="521.7428" y2="521.7428"/><text fill="#000000" font-family="sans-serif" font-size="14" lengthAdjust="spacing" textLength="111.4736" x="966.42" y="539.278">-key: RecordKey</text><text fill="#000000" font-family="sans-serif" font-size="14" lengthAdjust="spacing" textLength="203.0205" x="966.42" y="555.7663">-reason: InvalidRecordReason</text><line style="stroke:#888888;stroke-width:1;" x1="961.42" x2="1186.5743" y1="562.7194" y2="562.7194"/><text fill="#000000" font-family="sans-serif" font-size="14" lengthAdjust="spacing" textLength="123.6074" x="966.42" y="580.2545">+key(): RecordKey</text><text fill="#000000" font-family="sans-serif" font-size="14" lengthAdjust="spacing" textLength="215.1543" x="966.42" y="596.7428">+reason(): InvalidRecordReason</text></g><!--reverse link SectionRecord to MessageRecord--><g class="link" data-entity-1="SectionRecord" data-entity-2="MessageRecord" data-source-line="98" data-uid="lnk8" id="link_SectionRecord_MessageRecord"><path codeLine="98" d="M781,117.85 C781,135.9 781,152.17 781,171.31" fill="none" id="SectionRecord-backto-MessageRecord" style="stroke:#444444;stroke-width:1.2;"/><polygon fill="#444444" points="781,111.85,777,120.85,781,116.85,785,120.85,781,111.85" style="stroke:#444444;stroke-width:1.2;"/></g><!--reverse link MessageRecord to ValidMessageRecord--><g class="link" data-entity-1="MessageRecord" data-entity-2="ValidMessageRecord" data-source-line="99" data-uid="lnk9" id="link_MessageRecord_ValidMessageRecord"><path codeLine="99" d="M705.893,262.2816 C677.113,280.2816 648.73,298.51 619,318.73 C599.77,331.81 580.02,345.53 560.25,359.47" fill="none" id="MessageRecord-backto-ValidMessageRecord" style="stroke:#444444;stroke-width:1.2;"/><polygon fill="#444444" points="710.98,259.1,701.2285,260.481,706.7408,261.7513,705.4706,267.2637,710.98,259.1" style="stroke:#444444;stroke-width:1.2;"/></g><!--reverse link MessageRecord to FinalMessageRecord--><g class="link" data-entity-1="MessageRecord" data-entity-2="FinalMessageRecord" data-source-line="100" data-uid="lnk10" id="link_MessageRecord_FinalMessageRecord"><path codeLine="100" d="M781,265.19 C781,281.81 781,296.17 781,318.27" fill="none" id="MessageRecord-backto-FinalMessageRecord" style="stroke:#444444;stroke-width:1.2;"/><polygon fill="#444444" points="781,259.19,777,268.19,781,264.19,785,268.19,781,259.19" style="stroke:#444444;stroke-width:1.2;"/></g><!--reverse link MessageRecord to InvalidMessageRecord--><g class="link" data-entity-1="MessageRecord" data-entity-2="InvalidMessageRecord" data-source-line="101" data-uid="lnk11" id="link_MessageRecord_InvalidMessageRecord"><path codeLine="101" d="M870.4424,262.1977 C897.3124,278.4677 920.69,295.62 943,318.73 C989.61,367.01 1026.34,434.94 1048.91,483.3" fill="none" id="MessageRecord-backto-InvalidMessageRecord" style="stroke:#444444;stroke-width:1.2;"/><polygon fill="#444444" points="865.31,259.09,870.9368,267.1732,869.587,261.6798,875.0805,260.33,865.31,259.09" style="stroke:#444444;stroke-width:1.2;"/></g><!--SRC=[xLPDRzf04BtxLuoI0qI4AauB8HIGyb5IL9f80I5LLG-BFOOLPXUjbo0QvR_NQnkojjSk1swjEI3slNqpysRCRWMwtIuy39zkRuOm6lyO3XuVr98LB2XR4K6MC2NEOYRuchbttES2JhrhzT4OmPouV4FP3AHOemOakmH30NP30sw4u9j4xbFqPC7nd3eBXa40zeVBBDZdJ8xeRmJRrg1Lc2YPuPXA7zyPkhBZao1Gq2DP8fnyHVy59NN8IPPp8wMWqxN4WSDPf7EHfS2h1N2RyMOpfnBLEXSkYgJ0LlHORuSeT3h899NRNWzE7Gyzpolcr5-8Jrt5nARdORE4ITcUgvWXzyso4hzW6RgilbKw09H951vn44ReIChPCpfXDQ1b5XFLKuC5RgjdROX9tt0RGQ5uMkfx7A9S2fShkQqcsOHIckev22G1PsqOn9N4o7EqUBPVJONHbBcNafret4Wy0RymAKBuZZEFpjQ2gEeJ4y8OUV6apBYParm2a6lKUxLrG4QcFhfjc7Bk8s4Qj30agS59jcqOXKFAPXeYS8L4tgDFGe7xf08D3zPJgTuEmzRIzJvnSS2CadlyQIsB2IDfpgYkDSa9MoonkZ1sA8ZRKDYSILdx4wlLd6RDtWzmaTsrdTsAb76dfXkky5o1jRtbnkr_GMBR2uHruyieoleSdfhSFcN4FyxaUffKN5CRdbOgBF4xyK8lInyb3XtA7nz8_ZVVej9PpxT7yGezh9aQTCYEyS7q_s-VwUW2my7zcXtjz96x6zt2Kz8yBiRZU-UksbOzArPxKxU8IYhpgrRhqhvkNhUWtZFyiUpXdqJTu-P8t2xZ3CyX-Yq9zRlHDU0SN2gwKoxdlpwNXJ2vT_GWasE5IDsexCRLfMst6XSVLOmZo5iLT6SOM9bxMxsUkRfaHYt43QTddfJlfe5al8Zz0G00]--></g></svg>
