<svg xmlns="http://www.w3.org/2000/svg" xmlns:xlink="http://www.w3.org/1999/xlink" contentStyleType="text/css" data-diagram-type="CLASS" height="668px" preserveAspectRatio="none" style="width:1218px;height:668px;background:#F9F9F9;" version="1.1" viewBox="0 0 1218 668" width="1218px" zoomAndPan="magnify"><defs><filter height="300%" id="f1e27sgqds645r" width="300%" x="-1" y="-1"><feGaussianBlur result="blurOut" stdDeviation="2"/><feColorMatrix in="blurOut" result="blurOut2" type="matrix" values="0 0 0 0 0 0 0 0 0 0 0 0 0 0 0 0 0 0 .4 0"/><feOffset dx="4" dy="4" in="blurOut2" result="blurOut3"/><feBlend in="SourceGraphic" in2="blurOut3" mode="normal"/></filter></defs><g><rect fill="#F9F9F9" height="668" style="stroke:none;stroke-width:1;" width="1218" x="0" y="0"/><!--cluster message--><g class="cluster" data-entity="message" data-source-line="22" data-uid="ent0002" id="cluster_message"><path d="M13.5,6 L67.7803,6 A11.25,11.25 0 0 1 75.2803,13.5 L82.2803,28.4883 L1196.5,28.4883 A7.5,7.5 0 0 1 1204,35.9883 L1204,646.46 A7.5,7.5 0 0 1 1196.5,653.96 L13.5,653.96 A7.5,7.5 0 0 1 6,646.46 L6,13.5 A7.5,7.5 0 0 1 13.5,6" fill="none" filter="url(#f1e27sgqds645r)" style="stroke:#000000;stroke-width:1.5;"/><line style="stroke:#000000;stroke-width:1.5;" x1="6" x2="82.2803" y1="28.4883" y2="28.4883"/><text fill="#000000" font-family="sans-serif" font-size="14" font-weight="bold" lengthAdjust="spacing" textLength="63.2803" x="10" y="21.5352">message</text></g><!--class MessageRecord--><g class="entity" data-entity="MessageRecord" data-source-line="23" data-uid="ent0003" id="entity_MessageRecord"><rect fill="#CFEFFF" filter="url(#f1e27sgqds645r)" height="87.1094" rx="7.5" ry="7.5" style="stroke:#888888;stroke-width:0.5;" width="623.5293" x="469.24" y="41"/><ellipse cx="725.7859" cy="60.0664" fill="#B4A7E5" rx="11" ry="11" style="stroke:#181818;stroke-width:1;"/><path d="M721.7136,55.8315 L721.7136,53.6733 L729.093,53.6733 L729.093,55.8315 L726.6277,55.8315 L726.6277,63.9082 L729.093,63.9082 L729.093,66.0664 L721.7136,66.0664 L721.7136,63.9082 L724.179,63.9082 L724.179,55.8315 Z " fill="#000000"/><text fill="#000000" font-family="sans-serif" font-size="12" font-style="italic" lengthAdjust="spacing" textLength="45.4219" x="774.5437" y="57.6016">&#171;entity&#187;</text><text fill="#000000" font-family="Helvetica" font-size="14" font-style="italic" lengthAdjust="spacing" textLength="101.9375" x="746.2859" y="70.9131">MessageRecord</text><line style="stroke:#888888;stroke-width:0.5;" x1="470.24" x2="1091.7693" y1="79.1328" y2="79.1328"/><line style="stroke:#888888;stroke-width:0.5;" x1="470.24" x2="1091.7693" y1="87.1328" y2="87.1328"/><text fill="#000000" font-family="sans-serif" font-size="14" lengthAdjust="spacing" textLength="588.7998" x="475.24" y="104.668">+empty(messageKey: RecordKey, reason: InvalidRecordReason): InvalidMessageRecord</text><text fill="#000000" font-family="sans-serif" font-size="14" lengthAdjust="spacing" textLength="611.5293" x="475.24" y="121.1563">+of(messageKey: ValidMessageKey, messageEntry: ConfigurationSection): MessageRecord</text></g><!--class ValidMessageRecord--><g class="entity" data-entity="ValidMessageRecord" data-source-line="28" data-uid="ent0004" id="entity_ValidMessageRecord"><rect fill="#E6FFE6" filter="url(#f1e27sgqds645r)" height="367.4102" rx="7.5" ry="7.5" style="stroke:#888888;stroke-width:0.5;" width="579.3965" x="22.3" y="229.33"/><ellipse cx="241.2141" cy="248.3964" fill="#ADD1B2" rx="11" ry="11" style="stroke:#181818;stroke-width:1;"/><path d="M244.1872,254.0395 Q243.6062,254.3383 242.967,254.4877 Q242.3278,254.6371 241.6223,254.6371 Q239.1154,254.6371 237.7956,252.9853 Q236.4758,251.3334 236.4758,248.2123 Q236.4758,245.0829 237.7956,243.4311 Q239.1154,241.7792 241.6223,241.7792 Q242.3278,241.7792 242.9753,241.9286 Q243.6228,242.078 244.1872,242.3769 L244.1872,245.0995 Q243.5563,244.5185 242.9628,244.2487 Q242.3693,243.9789 241.7385,243.9789 Q240.3938,243.9789 239.7089,245.0456 Q239.0241,246.1122 239.0241,248.2123 Q239.0241,250.3041 239.7089,251.3708 Q240.3938,252.4374 241.7385,252.4374 Q242.3693,252.4374 242.9628,252.1676 Q243.5563,251.8979 244.1872,251.3168 Z " fill="#000000"/><text fill="#000000" font-family="sans-serif" font-size="12" font-style="italic" lengthAdjust="spacing" textLength="79.6934" x="288.4016" y="245.9316">&#171;entity-valid&#187;</text><text fill="#000000" font-family="Helvetica" font-size="14" lengthAdjust="spacing" textLength="133.0684" x="261.7141" y="259.2431">ValidMessageRecord</text><line style="stroke:#888888;stroke-width:0.5;" x1="23.3" x2="600.6965" y1="267.4628" y2="267.4628"/><text fill="#000000" font-family="sans-serif" font-size="14" lengthAdjust="spacing" textLength="124.9268" x="28.3" y="284.998">-enabled: boolean</text><text fill="#000000" font-family="sans-serif" font-size="14" lengthAdjust="spacing" textLength="156.6934" x="28.3" y="301.4863">-key: ValidMessageKey</text><text fill="#000000" font-family="sans-serif" font-size="14" lengthAdjust="spacing" textLength="116.334" x="28.3" y="317.9745">-message: String</text><text fill="#000000" font-family="sans-serif" font-size="14" lengthAdjust="spacing" textLength="156.6523" x="28.3" y="334.4628">-repeatDelay: Duration</text><text fill="#000000" font-family="sans-serif" font-size="14" lengthAdjust="spacing" textLength="107.9326" x="28.3" y="350.9511">-subtitle: String</text><text fill="#000000" font-family="sans-serif" font-size="14" lengthAdjust="spacing" textLength="83.2959" x="28.3" y="367.4394">-title: String</text><text fill="#000000" font-family="sans-serif" font-size="14" lengthAdjust="spacing" textLength="147.1025" x="28.3" y="383.9277">-titleFadeIn: Duration</text><text fill="#000000" font-family="sans-serif" font-size="14" lengthAdjust="spacing" textLength="159.1816" x="28.3" y="400.4159">-titleFadeOut: Duration</text><text fill="#000000" font-family="sans-serif" font-size="14" lengthAdjust="spacing" textLength="130.3545" x="28.3" y="416.9042">-titleStay: Duration</text><line style="stroke:#888888;stroke-width:1;" x1="23.3" x2="600.6965" y1="423.8573" y2="423.8573"/><text fill="#000000" font-family="sans-serif" font-size="14" lengthAdjust="spacing" textLength="567.3965" x="28.3" y="441.3925">+create(key: ValidMessageKey, section: ConfigurationSection): ValidMessageRecord</text><text fill="#000000" font-family="sans-serif" font-size="14" lengthAdjust="spacing" textLength="137.0605" x="28.3" y="457.8808">+enabled(): boolean</text><text fill="#000000" font-family="sans-serif" font-size="14" lengthAdjust="spacing" textLength="168.8271" x="28.3" y="474.3691">+key(): ValidMessageKey</text><text fill="#000000" font-family="sans-serif" font-size="14" lengthAdjust="spacing" textLength="128.4678" x="28.3" y="490.8573">+message(): String</text><text fill="#000000" font-family="sans-serif" font-size="14" lengthAdjust="spacing" textLength="168.7861" x="28.3" y="507.3456">+repeatDelay(): Duration</text><text fill="#000000" font-family="sans-serif" font-size="14" lengthAdjust="spacing" textLength="120.0664" x="28.3" y="523.8339">+subtitle(): String</text><text fill="#000000" font-family="sans-serif" font-size="14" lengthAdjust="spacing" textLength="95.4297" x="28.3" y="540.3222">+title(): String</text><text fill="#000000" font-family="sans-serif" font-size="14" lengthAdjust="spacing" textLength="159.2363" x="28.3" y="556.8105">+titleFadeIn(): Duration</text><text fill="#000000" font-family="sans-serif" font-size="14" lengthAdjust="spacing" textLength="171.3154" x="28.3" y="573.2988">+titleFadeOut(): Duration</text><text fill="#000000" font-family="sans-serif" font-size="14" lengthAdjust="spacing" textLength="142.4883" x="28.3" y="589.787">+titleStay(): Duration</text></g><!--class FinalMessageRecord--><g class="entity" data-entity="FinalMessageRecord" data-source-line="51" data-uid="ent0005" id="entity_FinalMessageRecord"><rect fill="#E6FFE6" filter="url(#f1e27sgqds645r)" height="449.8516" rx="7.5" ry="7.5" style="stroke:#888888;stroke-width:0.5;" width="289.3818" x="636.31" y="188.11"/><ellipse cx="710.6098" cy="207.1764" fill="#ADD1B2" rx="11" ry="11" style="stroke:#181818;stroke-width:1;"/><path d="M713.5829,212.8195 Q713.0019,213.1183 712.3627,213.2677 Q711.7236,213.4171 711.018,213.4171 Q708.5112,213.4171 707.1913,211.7653 Q705.8715,210.1134 705.8715,206.9923 Q705.8715,203.8629 707.1913,202.2111 Q708.5112,200.5592 711.018,200.5592 Q711.7236,200.5592 712.371,200.7086 Q713.0185,200.858 713.5829,201.1569 L713.5829,203.8795 Q712.9521,203.2985 712.3586,203.0287 Q711.7651,202.7589 711.1342,202.7589 Q709.7895,202.7589 709.1047,203.8256 Q708.4199,204.8922 708.4199,206.9923 Q708.4199,209.0841 709.1047,210.1508 Q709.7895,211.2174 711.1342,211.2174 Q711.7651,211.2174 712.3586,210.9476 Q712.9521,210.6779 713.5829,210.0968 Z " fill="#000000"/><text fill="#000000" font-family="sans-serif" font-size="12" font-style="italic" lengthAdjust="spacing" textLength="79.6934" x="757.4042" y="204.7116">&#171;entity-valid&#187;</text><text fill="#000000" font-family="Helvetica" font-size="14" lengthAdjust="spacing" textLength="132.2822" x="731.1098" y="218.0231">FinalMessageRecord</text><line style="stroke:#888888;stroke-width:0.5;" x1="637.31" x2="924.6918" y1="226.2428" y2="226.2428"/><text fill="#000000" font-family="sans-serif" font-size="14" lengthAdjust="spacing" textLength="124.9268" x="642.31" y="243.778">-enabled: boolean</text><text fill="#000000" font-family="sans-serif" font-size="14" lengthAdjust="spacing" textLength="265.248" x="642.31" y="260.2663">-finalMessageString: Optional&lt;String&gt;</text><text fill="#000000" font-family="sans-serif" font-size="14" lengthAdjust="spacing" textLength="258.2617" x="642.31" y="276.7545">-finalSubtitleString: Optional&lt;String&gt;</text><text fill="#000000" font-family="sans-serif" font-size="14" lengthAdjust="spacing" textLength="236.8379" x="642.31" y="293.2428">-finalTitleString: Optional&lt;String&gt;</text><text fill="#000000" font-family="sans-serif" font-size="14" lengthAdjust="spacing" textLength="156.6934" x="642.31" y="309.7311">-key: ValidMessageKey</text><text fill="#000000" font-family="sans-serif" font-size="14" lengthAdjust="spacing" textLength="116.334" x="642.31" y="326.2194">-message: String</text><text fill="#000000" font-family="sans-serif" font-size="14" lengthAdjust="spacing" textLength="156.6523" x="642.31" y="342.7077">-repeatDelay: Duration</text><text fill="#000000" font-family="sans-serif" font-size="14" lengthAdjust="spacing" textLength="107.9326" x="642.31" y="359.1959">-subtitle: String</text><text fill="#000000" font-family="sans-serif" font-size="14" lengthAdjust="spacing" textLength="83.2959" x="642.31" y="375.6842">-title: String</text><text fill="#000000" font-family="sans-serif" font-size="14" lengthAdjust="spacing" textLength="147.1025" x="642.31" y="392.1725">-titleFadeIn: Duration</text><text fill="#000000" font-family="sans-serif" font-size="14" lengthAdjust="spacing" textLength="159.1816" x="642.31" y="408.6608">-titleFadeOut: Duration</text><text fill="#000000" font-family="sans-serif" font-size="14" lengthAdjust="spacing" textLength="130.3545" x="642.31" y="425.1491">-titleStay: Duration</text><line style="stroke:#888888;stroke-width:1;" x1="637.31" x2="924.6918" y1="432.1022" y2="432.1022"/><text fill="#000000" font-family="sans-serif" font-size="14" lengthAdjust="spacing" textLength="137.0605" x="642.31" y="449.6373">+enabled(): boolean</text><text fill="#000000" font-family="sans-serif" font-size="14" lengthAdjust="spacing" textLength="277.3818" x="642.31" y="466.1256">+finalMessageString(): Optional&lt;String&gt;</text><text fill="#000000" font-family="sans-serif" font-size="14" lengthAdjust="spacing" textLength="270.3955" x="642.31" y="482.6139">+finalSubtitleString(): Optional&lt;String&gt;</text><text fill="#000000" font-family="sans-serif" font-size="14" lengthAdjust="spacing" textLength="248.9717" x="642.31" y="499.1022">+finalTitleString(): Optional&lt;String&gt;</text><text fill="#000000" font-family="sans-serif" font-size="14" lengthAdjust="spacing" textLength="168.8271" x="642.31" y="515.5905">+key(): ValidMessageKey</text><text fill="#000000" font-family="sans-serif" font-size="14" lengthAdjust="spacing" textLength="128.4678" x="642.31" y="532.0788">+message(): String</text><text fill="#000000" font-family="sans-serif" font-size="14" lengthAdjust="spacing" textLength="168.7861" x="642.31" y="548.567">+repeatDelay(): Duration</text><text fill="#000000" font-family="sans-serif" font-size="14" lengthAdjust="spacing" textLength="120.0664" x="642.31" y="565.0553">+subtitle(): String</text><text fill="#000000" font-family="sans-serif" font-size="14" lengthAdjust="spacing" textLength="95.4297" x="642.31" y="581.5436">+title(): String</text><text fill="#000000" font-family="sans-serif" font-size="14" lengthAdjust="spacing" textLength="159.2363" x="642.31" y="598.0319">+titleFadeIn(): Duration</text><text fill="#000000" font-family="sans-serif" font-size="14" lengthAdjust="spacing" textLength="171.3154" x="642.31" y="614.5202">+titleFadeOut(): Duration</text><text fill="#000000" font-family="sans-serif" font-size="14" lengthAdjust="spacing" textLength="142.4883" x="642.31" y="631.0084">+titleStay(): Duration</text></g><!--class InvalidMessageRecord--><g class="entity" data-entity="InvalidMessageRecord" data-source-line="79" data-uid="ent0006" id="entity_InvalidMessageRecord"><rect fill="#FFE6E6" filter="url(#f1e27sgqds645r)" height="120.0859" rx="7.5" ry="7.5" style="stroke:#888888;stroke-width:0.5;" width="227.1543" x="960.42" y="352.99"/><ellipse cx="999.1566" cy="372.0564" fill="#ADD1B2" rx="11" ry="11" style="stroke:#181818;stroke-width:1;"/><path d="M1002.1298,377.6995 Q1001.5487,377.9983 1000.9096,378.1477 Q1000.2704,378.2971 999.5648,378.2971 Q997.058,378.2971 995.7382,376.6453 Q994.4183,374.9934 994.4183,371.8723 Q994.4183,368.7429 995.7382,367.0911 Q997.058,365.4392 999.5648,365.4392 Q1000.2704,365.4392 1000.9179,365.5886 Q1001.5653,365.738 1002.1298,366.0369 L1002.1298,368.7595 Q1001.4989,368.1785 1000.9054,367.9087 Q1000.3119,367.6389 999.681,367.6389 Q998.3363,367.6389 997.6515,368.7056 Q996.9667,369.7722 996.9667,371.8723 Q996.9667,373.9641 997.6515,375.0308 Q998.3363,376.0974 999.681,376.0974 Q1000.3119,376.0974 1000.9054,375.8276 Q1001.4989,375.5579 1002.1298,374.9768 Z " fill="#000000"/><text fill="#000000" font-family="sans-serif" font-size="12" font-style="italic" lengthAdjust="spacing" textLength="90.6094" x="1044.3299" y="369.5916">&#171;entity-invalid&#187;</text><text fill="#000000" font-family="Helvetica" font-size="14" lengthAdjust="spacing" textLength="142.4063" x="1018.4314" y="382.9031">InvalidMessageRecord</text><line style="stroke:#888888;stroke-width:0.5;" x1="961.42" x2="1186.5743" y1="391.1228" y2="391.1228"/><text fill="#000000" font-family="sans-serif" font-size="14" lengthAdjust="spacing" textLength="111.4736" x="966.42" y="408.658">-key: RecordKey</text><text fill="#000000" font-family="sans-serif" font-size="14" lengthAdjust="spacing" textLength="203.0205" x="966.42" y="425.1463">-reason: InvalidRecordReason</text><line style="stroke:#888888;stroke-width:1;" x1="961.42" x2="1186.5743" y1="432.0994" y2="432.0994"/><text fill="#000000" font-family="sans-serif" font-size="14" lengthAdjust="spacing" textLength="123.6074" x="966.42" y="449.6345">+key(): RecordKey</text><text fill="#000000" font-family="sans-serif" font-size="14" lengthAdjust="spacing" textLength="215.1543" x="966.42" y="466.1228">+reason(): InvalidRecordReason</text></g><!--reverse link MessageRecord to ValidMessageRecord--><g class="link" data-entity-1="MessageRecord" data-entity-2="ValidMessageRecord" data-source-line="89" data-uid="lnk7" id="link_MessageRecord_ValidMessageRecord"><path codeLine="89" d="M705.893,131.6616 C677.113,149.6616 648.73,167.89 619,188.11 C599.77,201.19 580.02,214.91 560.25,228.85" fill="none" id="MessageRecord-backto-ValidMessageRecord" style="stroke:#444444;stroke-width:1.2;"/><polygon fill="#444444" points="710.98,128.48,701.2285,129.861,706.7408,131.1313,705.4706,136.6437,710.98,128.48" style="stroke:#444444;stroke-width:1.2;"/></g><!--reverse link MessageRecord to FinalMessageRecord--><g class="link" data-entity-1="MessageRecord" data-entity-2="FinalMessageRecord" data-source-line="90" data-uid="lnk8" id="link_MessageRecord_FinalMessageRecord"><path codeLine="90" d="M781,134.57 C781,151.19 781,165.55 781,187.65" fill="none" id="MessageRecord-backto-FinalMessageRecord" style="stroke:#444444;stroke-width:1.2;"/><polygon fill="#444444" points="781,128.57,777,137.57,781,133.57,785,137.57,781,128.57" style="stroke:#444444;stroke-width:1.2;"/></g><!--reverse link MessageRecord to InvalidMessageRecord--><g class="link" data-entity-1="MessageRecord" data-entity-2="InvalidMessageRecord" data-source-line="91" data-uid="lnk9" id="link_MessageRecord_InvalidMessageRecord"><path codeLine="91" d="M870.4424,131.5777 C897.3124,147.8477 920.69,165 943,188.11 C989.61,236.39 1026.34,304.32 1048.91,352.68" fill="none" id="MessageRecord-backto-InvalidMessageRecord" style="stroke:#444444;stroke-width:1.2;"/><polygon fill="#444444" points="865.31,128.47,870.9368,136.5532,869.587,131.0598,875.0805,129.71,865.31,128.47" style="stroke:#444444;stroke-width:1.2;"/></g><!--SRC=[xLLHRzem47xFhpYr3mLbJ6FQgWq14cr7XyQAL13I7aro3XR1HexJYbNyzzd4eoPn60zxsyn3q7sVFzzzTucleDVhmVruSZCOmtJsOpnwk3UX85inlY6Ih651ebKYHSxZMv4A2PVqi_avZ6n9Ol7CU09AvkW0TfVaAA7zqG46KefdA_TXlyhWRCcY5SSiW_RRzsLmABYQify8xRO3RNIY9C4PKoc-CbpbA2LPPg07iaQu-8hf4oeMaOioPw2KP8jSuIWIVA_phao1bm3WfkJDyv8fD74XOvIsm4_x5UpEKUXsaIkcjlq-N4OKAQNrdDOJILbic7XDALwVO39-u1gcvkw2mFe5Q-soUPfq01XNA2c94BuNyKUCT3NWP5OGpGe1rnkrRLY9RxZjGC7NVz-0H989te5HSNo1FEw3pKFqw1X7MT0ZsRd3tOjRy0jNKiEtWbEMv98efZk6aNdeCwhYkd3pA3emhoG05NTVgsq1Sh98CUx0GeWK2NUWbIT91xRPTc2g9uid3Y9nWqJTOKgqm9sjmC6pVA7CI7ksdemFIOmZxfKyu9DSrHEcofzHosbIf5kiiB7oTYWhsb3RdFcfzbkh6ysgsQ4nkz6ijplyRRSXbTm9NSCDNYamF5ZktVu7fB2zHjWr_XJ5M5_1ZoPto3X9_yxaKaUggAa3auqvbgJT8j0lqwVMeNFvipF9_-PRT7BMg-qnl5eFGr-3pjanEvl-_-tpNLtWkMrVogDzk1oFHhVsblIFY_M_gXLQhKQpNcrdhluhZ1FCWbB-hPRlarmbLRyz7fBtTly5]--></g></svg>
