<svg xmlns="http://www.w3.org/2000/svg" xmlns:xlink="http://www.w3.org/1999/xlink" contentStyleType="text/css" data-diagram-type="CLASS" height="322px" preserveAspectRatio="none" style="width:801px;height:322px;background:#F9F9F9;" version="1.1" viewBox="0 0 801 322" width="801px" zoomAndPan="magnify"><defs><filter height="300%" id="fwtqjsonqbjlq" width="300%" x="-1" y="-1"><feGaussianBlur result="blurOut" stdDeviation="2"/><feColorMatrix in="blurOut" result="blurOut2" type="matrix" values="0 0 0 0 0 0 0 0 0 0 0 0 0 0 0 0 0 0 .4 0"/><feOffset dx="4" dy="4" in="blurOut2" result="blurOut3"/><feBlend in="SourceGraphic" in2="blurOut3" mode="normal"/></filter></defs><g><rect fill="#F9F9F9" height="322" style="stroke:none;stroke-width:1;" width="801" x="0" y="0"/><!--cluster recipient--><g class="cluster" data-entity="recipient" data-source-line="22" data-uid="ent0002" id="cluster_recipient"><path d="M13.5,6 L67.9717,6 A11.25,11.25 0 0 1 75.4717,13.5 L82.4717,28.4883 L779.5,28.4883 A7.5,7.5 0 0 1 787,35.9883 L787,300.21 A7.5,7.5 0 0 1 779.5,307.71 L13.5,307.71 A7.5,7.5 0 0 1 6,300.21 L6,13.5 A7.5,7.5 0 0 1 13.5,6" fill="none" filter="url(#fwtqjsonqbjlq)" style="stroke:#000000;stroke-width:1.5;"/><line style="stroke:#000000;stroke-width:1.5;" x1="6" x2="82.4717" y1="28.4883" y2="28.4883"/><text fill="#000000" font-family="sans-serif" font-size="14" font-weight="bold" lengthAdjust="spacing" textLength="63.4717" x="10" y="21.5352">recipient</text></g><!--class Recipient--><g class="entity" data-entity="Recipient" data-source-line="23" data-uid="ent0003" id="entity_Recipient"><rect fill="#CFEFFF" filter="url(#fwtqjsonqbjlq)" height="70.6211" rx="7.5" ry="7.5" style="stroke:#888888;stroke-width:0.5;" width="288.1445" x="239.93" y="41"/><ellipse cx="350.5696" cy="60.0664" fill="#B4A7E5" rx="11" ry="11" style="stroke:#181818;stroke-width:1;"/><path d="M346.4974,55.8315 L346.4974,53.6733 L353.8768,53.6733 L353.8768,55.8315 L351.4114,55.8315 L351.4114,63.9082 L353.8768,63.9082 L353.8768,66.0664 L346.4974,66.0664 L346.4974,63.9082 L348.9627,63.9082 L348.9627,55.8315 Z " fill="#000000"/><text fill="#000000" font-family="sans-serif" font-size="12" font-style="italic" lengthAdjust="spacing" textLength="45.4219" x="377.5413" y="57.6016">&#171;entity&#187;</text><text fill="#000000" font-family="Helvetica" font-size="14" font-style="italic" lengthAdjust="spacing" textLength="58.3652" x="371.0696" y="70.9131">Recipient</text><line style="stroke:#888888;stroke-width:0.5;" x1="240.93" x2="527.0745" y1="79.1328" y2="79.1328"/><line style="stroke:#888888;stroke-width:0.5;" x1="240.93" x2="527.0745" y1="87.1328" y2="87.1328"/><text fill="#000000" font-family="sans-serif" font-size="14" lengthAdjust="spacing" textLength="276.1445" x="245.93" y="104.668">+of(sender: CommandSender): Recipient</text></g><!--class ValidRecipient--><g class="entity" data-entity="ValidRecipient" data-source-line="26" data-uid="ent0004" id="entity_ValidRecipient"><rect fill="#E6FFE6" filter="url(#fwtqjsonqbjlq)" height="87.1094" rx="7.5" ry="7.5" style="stroke:#888888;stroke-width:0.5;" width="203.085" x="22.46" y="188.11"/><ellipse cx="75.0044" cy="207.1764" fill="#ADD1B2" rx="11" ry="11" style="stroke:#181818;stroke-width:1;"/><path d="M77.9776,212.8195 Q77.3965,213.1183 76.7574,213.2677 Q76.1182,213.4171 75.4126,213.4171 Q72.9058,213.4171 71.586,211.7653 Q70.2662,210.1134 70.2662,206.9923 Q70.2662,203.8629 71.586,202.2111 Q72.9058,200.5592 75.4126,200.5592 Q76.1182,200.5592 76.7657,200.7086 Q77.4131,200.858 77.9776,201.1569 L77.9776,203.8795 Q77.3467,203.2985 76.7532,203.0287 Q76.1597,202.7589 75.5288,202.7589 Q74.1841,202.7589 73.4993,203.8256 Q72.8145,204.8922 72.8145,206.9923 Q72.8145,209.0841 73.4993,210.1508 Q74.1841,211.2174 75.5288,211.2174 Q76.1597,211.2174 76.7532,210.9476 Q77.3467,210.6779 77.9776,210.0968 Z " fill="#000000"/><text fill="#000000" font-family="sans-serif" font-size="12" font-style="italic" lengthAdjust="spacing" textLength="79.6934" x="100.4058" y="204.7116">&#171;entity-valid&#187;</text><text fill="#000000" font-family="Helvetica" font-size="14" lengthAdjust="spacing" textLength="89.4961" x="95.5044" y="218.0231">ValidRecipient</text><line style="stroke:#888888;stroke-width:0.5;" x1="23.46" x2="224.545" y1="226.2428" y2="226.2428"/><text fill="#000000" font-family="sans-serif" font-size="14" lengthAdjust="spacing" textLength="178.9512" x="28.46" y="243.778">-sender: CommandSender</text><line style="stroke:#888888;stroke-width:1;" x1="23.46" x2="224.545" y1="250.7311" y2="250.7311"/><text fill="#000000" font-family="sans-serif" font-size="14" lengthAdjust="spacing" textLength="191.085" x="28.46" y="268.2663">+sender(): CommandSender</text></g><!--class ProxiedRecipient--><g class="entity" data-entity="ProxiedRecipient" data-source-line="31" data-uid="ent0005" id="entity_ProxiedRecipient"><rect fill="#E6FFE6" filter="url(#fwtqjsonqbjlq)" height="120.0859" rx="7.5" ry="7.5" style="stroke:#888888;stroke-width:0.5;" width="247.4707" x="260.26" y="171.62"/><ellipse cx="326.8284" cy="190.6864" fill="#ADD1B2" rx="11" ry="11" style="stroke:#181818;stroke-width:1;"/><path d="M329.8015,196.3295 Q329.2204,196.6283 328.5813,196.7777 Q327.9421,196.9271 327.2366,196.9271 Q324.7297,196.9271 323.4099,195.2753 Q322.0901,193.6234 322.0901,190.5023 Q322.0901,187.3729 323.4099,185.7211 Q324.7297,184.0692 327.2366,184.0692 Q327.9421,184.0692 328.5896,184.2186 Q329.2371,184.368 329.8015,184.6669 L329.8015,187.3895 Q329.1706,186.8085 328.5771,186.5387 Q327.9836,186.2689 327.3528,186.2689 Q326.008,186.2689 325.3232,187.3356 Q324.6384,188.4022 324.6384,190.5023 Q324.6384,192.5941 325.3232,193.6608 Q326.008,194.7274 327.3528,194.7274 Q327.9836,194.7274 328.5771,194.4576 Q329.1706,194.1879 329.8015,193.6068 Z " fill="#000000"/><text fill="#000000" font-family="sans-serif" font-size="12" font-style="italic" lengthAdjust="spacing" textLength="79.6934" x="360.3987" y="188.2216">&#171;entity-valid&#187;</text><text fill="#000000" font-family="Helvetica" font-size="14" lengthAdjust="spacing" textLength="105.834" x="347.3284" y="201.5331">ProxiedRecipient</text><line style="stroke:#888888;stroke-width:0.5;" x1="261.26" x2="506.7307" y1="209.7528" y2="209.7528"/><text fill="#000000" font-family="sans-serif" font-size="14" lengthAdjust="spacing" textLength="223.3369" x="266.26" y="227.288">-proxy: ProxiedCommandSender</text><text fill="#000000" font-family="sans-serif" font-size="14" lengthAdjust="spacing" textLength="178.9512" x="266.26" y="243.7762">-sender: CommandSender</text><line style="stroke:#888888;stroke-width:1;" x1="261.26" x2="506.7307" y1="250.7294" y2="250.7294"/><text fill="#000000" font-family="sans-serif" font-size="14" lengthAdjust="spacing" textLength="235.4707" x="266.26" y="268.2645">+proxy(): ProxiedCommandSender</text><text fill="#000000" font-family="sans-serif" font-size="14" lengthAdjust="spacing" textLength="191.085" x="266.26" y="284.7528">+sender(): CommandSender</text></g><!--class InvalidRecipient--><g class="entity" data-entity="InvalidRecipient" data-source-line="38" data-uid="ent0006" id="entity_InvalidRecipient"><rect fill="#FFE6E6" filter="url(#fwtqjsonqbjlq)" height="120.0859" rx="7.5" ry="7.5" style="stroke:#888888;stroke-width:0.5;" width="227.9336" x="543.03" y="171.62"/><ellipse cx="603.3298" cy="190.6864" fill="#ADD1B2" rx="11" ry="11" style="stroke:#181818;stroke-width:1;"/><path d="M606.3029,196.3295 Q605.7219,196.6283 605.0827,196.7777 Q604.4436,196.9271 603.738,196.9271 Q601.2312,196.9271 599.9113,195.2753 Q598.5915,193.6234 598.5915,190.5023 Q598.5915,187.3729 599.9113,185.7211 Q601.2312,184.0692 603.738,184.0692 Q604.4436,184.0692 605.091,184.2186 Q605.7385,184.368 606.3029,184.6669 L606.3029,187.3895 Q605.6721,186.8085 605.0786,186.5387 Q604.4851,186.2689 603.8542,186.2689 Q602.5095,186.2689 601.8247,187.3356 Q601.1399,188.4022 601.1399,190.5023 Q601.1399,192.5941 601.8247,193.6608 Q602.5095,194.7274 603.8542,194.7274 Q604.4851,194.7274 605.0786,194.4576 Q605.6721,194.1879 606.3029,193.6068 Z " fill="#000000"/><text fill="#000000" font-family="sans-serif" font-size="12" font-style="italic" lengthAdjust="spacing" textLength="90.6094" x="627.9421" y="188.2216">&#171;entity-invalid&#187;</text><text fill="#000000" font-family="Helvetica" font-size="14" lengthAdjust="spacing" textLength="98.834" x="623.8298" y="201.5331">InvalidRecipient</text><line style="stroke:#888888;stroke-width:0.5;" x1="544.03" x2="769.9636" y1="209.7528" y2="209.7528"/><text fill="#000000" font-family="sans-serif" font-size="14" lengthAdjust="spacing" textLength="203.7998" x="549.03" y="227.288">-invalidReason: InvalidReason</text><text fill="#000000" font-family="sans-serif" font-size="14" lengthAdjust="spacing" textLength="178.9512" x="549.03" y="243.7762">-sender: CommandSender</text><line style="stroke:#888888;stroke-width:1;" x1="544.03" x2="769.9636" y1="250.7294" y2="250.7294"/><text fill="#000000" font-family="sans-serif" font-size="14" lengthAdjust="spacing" textLength="215.9336" x="549.03" y="268.2645">+invalidReason(): InvalidReason</text><text fill="#000000" font-family="sans-serif" font-size="14" lengthAdjust="spacing" textLength="191.085" x="549.03" y="284.7528">+sender(): CommandSender</text></g><!--reverse link Recipient to ValidRecipient--><g class="link" data-entity-1="Recipient" data-entity-2="ValidRecipient" data-source-line="48" data-uid="lnk7" id="link_Recipient_ValidRecipient"><path codeLine="48" d="M319.8324,115.1589 C281.7824,137.6089 237.18,163.91 196.69,187.79" fill="none" id="Recipient-backto-ValidRecipient" style="stroke:#444444;stroke-width:1.2;"/><polygon fill="#444444" points="325,112.11,315.216,113.2384,320.6937,114.6508,319.2813,120.1285,325,112.11" style="stroke:#444444;stroke-width:1.2;"/></g><!--reverse link Recipient to ProxiedRecipient--><g class="link" data-entity-1="Recipient" data-entity-2="ProxiedRecipient" data-source-line="49" data-uid="lnk8" id="link_Recipient_ProxiedRecipient"><path codeLine="49" d="M384,118.11 C384,135.61 384,151.3 384,171.33" fill="none" id="Recipient-backto-ProxiedRecipient" style="stroke:#444444;stroke-width:1.2;"/><polygon fill="#444444" points="384,112.11,380,121.11,384,117.11,388,121.11,384,112.11" style="stroke:#444444;stroke-width:1.2;"/></g><!--reverse link Recipient to InvalidRecipient--><g class="link" data-entity-1="Recipient" data-entity-2="InvalidRecipient" data-source-line="50" data-uid="lnk9" id="link_Recipient_InvalidRecipient"><path codeLine="50" d="M451.1814,115.0481 C482.2514,132.4981 515.52,151.19 551.1,171.18" fill="none" id="Recipient-backto-InvalidRecipient" style="stroke:#444444;stroke-width:1.2;"/><polygon fill="#444444" points="445.95,112.11,451.8383,120.0048,450.3095,114.5584,455.7558,113.0296,445.95,112.11" style="stroke:#444444;stroke-width:1.2;"/></g><!--SRC=[dP9HQy8m58NV-oik-g0oEkROP1CLL9WJn8qfWpt6zaQ3DP4awjpmlwzfrMQPEhSK2itvSdfEaWBKwtNez9vQpHuCXc-zRhzZfZmrPNnE99d1Y0JJiHGB7hP592JawRrvB49DI2XMZ8z1omLQmdQLv2YXV6i9JId5QcjtamnN74vOCEMe59GlhrtnGN0zO1y8vR8bpUEWP8n3fYFC2DivY8XIHkgJ6KBk4QCbQXQGdCiqjPPijD3O3GHFVAvS13uzW9QpDwi9qsZcXGnHRWlU9SFRdEDGgo7NJAyR3SW752cbnnb_II8M6X8hb6Bb1CdudZLap6uyRxjV835WSnQJII00nZLAIWA4bxrYvKeXCov0qA927bUjGblCPeI7W-IpLCtM9lWcUQUrNqsKdzRxEjaFV3Zedkc-bIL5YwL3iFtxPodU6PuRO1xJw-fkqP4OVucP69gK9otFhzDDZ_P0dUpGxK9innCbU3LRRZx_r-YRembysFEtIl6DB60uHkLPNNpVkIwEw1wc8xkRutq1]--></g></svg>
