<svg xmlns="http://www.w3.org/2000/svg" xmlns:xlink="http://www.w3.org/1999/xlink" contentStyleType="text/css" data-diagram-type="CLASS" height="355px" preserveAspectRatio="none" style="width:787px;height:355px;background:#F9F9F9;" version="1.1" viewBox="0 0 787 355" width="787px" zoomAndPan="magnify"><defs><filter height="300%" id="fng6zdx9ibxpq" width="300%" x="-1" y="-1"><feGaussianBlur result="blurOut" stdDeviation="2"/><feColorMatrix in="blurOut" result="blurOut2" type="matrix" values="0 0 0 0 0 0 0 0 0 0 0 0 0 0 0 0 0 0 .4 0"/><feOffset dx="4" dy="4" in="blurOut2" result="blurOut3"/><feBlend in="SourceGraphic" in2="blurOut3" mode="normal"/></filter></defs><g><rect fill="#F9F9F9" height="355" style="stroke:none;stroke-width:1;" width="787" x="0" y="0"/><!--cluster constant--><g class="cluster" data-entity="constant" data-source-line="22" data-uid="ent0002" id="cluster_constant"><path d="M13.5,6 L66.7754,6 A11.25,11.25 0 0 1 74.2754,13.5 L81.2754,28.4883 L765.5,28.4883 A7.5,7.5 0 0 1 773,35.9883 L773,333.18 A7.5,7.5 0 0 1 765.5,340.68 L13.5,340.68 A7.5,7.5 0 0 1 6,333.18 L6,13.5 A7.5,7.5 0 0 1 13.5,6" fill="none" filter="url(#fng6zdx9ibxpq)" style="stroke:#000000;stroke-width:1.5;"/><line style="stroke:#000000;stroke-width:1.5;" x1="6" x2="81.2754" y1="28.4883" y2="28.4883"/><text fill="#000000" font-family="sans-serif" font-size="14" font-weight="bold" lengthAdjust="spacing" textLength="62.2754" x="10" y="21.5352">constant</text></g><!--class ConstantRecord--><g class="entity" data-entity="ConstantRecord" data-source-line="23" data-uid="ent0003" id="entity_ConstantRecord"><rect fill="#CFEFFF" filter="url(#fng6zdx9ibxpq)" height="87.1094" rx="7.5" ry="7.5" style="stroke:#888888;stroke-width:0.5;" width="602.4951" x="87.75" y="41"/><ellipse cx="334.165" cy="60.0664" fill="#B4A7E5" rx="11" ry="11" style="stroke:#181818;stroke-width:1;"/><path d="M330.0928,55.8315 L330.0928,53.6733 L337.4722,53.6733 L337.4722,55.8315 L335.0068,55.8315 L335.0068,63.9082 L337.4722,63.9082 L337.4722,66.0664 L330.0928,66.0664 L330.0928,63.9082 L332.5581,63.9082 L332.5581,55.8315 Z " fill="#000000"/><text fill="#000000" font-family="sans-serif" font-size="12" font-style="italic" lengthAdjust="spacing" textLength="45.4219" x="382.5366" y="57.6016">&#171;entity&#187;</text><text fill="#000000" font-family="Helvetica" font-size="14" font-style="italic" lengthAdjust="spacing" textLength="101.165" x="354.665" y="70.9131">ConstantRecord</text><line style="stroke:#888888;stroke-width:0.5;" x1="88.75" x2="689.2451" y1="79.1328" y2="79.1328"/><line style="stroke:#888888;stroke-width:0.5;" x1="88.75" x2="689.2451" y1="87.1328" y2="87.1328"/><text fill="#000000" font-family="sans-serif" font-size="14" lengthAdjust="spacing" textLength="590.4951" x="93.75" y="104.668">+empty(constantKey: RecordKey, reason: InvalidRecordReason): InvalidConstantRecord</text><text fill="#000000" font-family="sans-serif" font-size="14" lengthAdjust="spacing" textLength="516.373" x="93.75" y="121.1563">+of(constantKey: ValidConstantKey, constantEntry: Object): ConstantRecord</text></g><!--class ValidConstantRecord--><g class="entity" data-entity="ValidConstantRecord" data-source-line="28" data-uid="ent0004" id="entity_ValidConstantRecord"><rect fill="#E6FFE6" filter="url(#fng6zdx9ibxpq)" height="136.5742" rx="7.5" ry="7.5" style="stroke:#888888;stroke-width:0.5;" width="472.9063" x="21.55" y="188.11"/><ellipse cx="187.6052" cy="207.1764" fill="#ADD1B2" rx="11" ry="11" style="stroke:#181818;stroke-width:1;"/><path d="M190.5783,212.8195 Q189.9973,213.1183 189.3581,213.2677 Q188.7189,213.4171 188.0134,213.4171 Q185.5065,213.4171 184.1867,211.7653 Q182.8669,210.1134 182.8669,206.9923 Q182.8669,203.8629 184.1867,202.2111 Q185.5065,200.5592 188.0134,200.5592 Q188.7189,200.5592 189.3664,200.7086 Q190.0139,200.858 190.5783,201.1569 L190.5783,203.8795 Q189.9475,203.2985 189.354,203.0287 Q188.7604,202.7589 188.1296,202.7589 Q186.7849,202.7589 186.1,203.8256 Q185.4152,204.8922 185.4152,206.9923 Q185.4152,209.0841 186.1,210.1508 Q186.7849,211.2174 188.1296,211.2174 Q188.7604,211.2174 189.354,210.9476 Q189.9475,210.6779 190.5783,210.0968 Z " fill="#000000"/><text fill="#000000" font-family="sans-serif" font-size="12" font-style="italic" lengthAdjust="spacing" textLength="79.6934" x="234.4064" y="204.7116">&#171;entity-valid&#187;</text><text fill="#000000" font-family="Helvetica" font-size="14" lengthAdjust="spacing" textLength="132.2959" x="208.1052" y="218.0231">ValidConstantRecord</text><line style="stroke:#888888;stroke-width:0.5;" x1="22.55" x2="493.4563" y1="226.2428" y2="226.2428"/><text fill="#000000" font-family="sans-serif" font-size="14" lengthAdjust="spacing" textLength="159.3047" x="27.55" y="243.778">-key: ValidConstantKey</text><text fill="#000000" font-family="sans-serif" font-size="14" lengthAdjust="spacing" textLength="96.626" x="27.55" y="260.2663">-value: Object</text><line style="stroke:#888888;stroke-width:1;" x1="22.55" x2="493.4563" y1="267.2194" y2="267.2194"/><text fill="#000000" font-family="sans-serif" font-size="14" lengthAdjust="spacing" textLength="460.9063" x="27.55" y="284.7545">+create(key: ValidConstantKey, value: Object): ValidConstantRecord</text><text fill="#000000" font-family="sans-serif" font-size="14" lengthAdjust="spacing" textLength="171.4385" x="27.55" y="301.2428">+key(): ValidConstantKey</text><text fill="#000000" font-family="sans-serif" font-size="14" lengthAdjust="spacing" textLength="108.7598" x="27.55" y="317.7311">+value(): Object</text></g><!--class InvalidConstantRecord--><g class="entity" data-entity="InvalidConstantRecord" data-source-line="37" data-uid="ent0005" id="entity_InvalidConstantRecord"><rect fill="#FFE6E6" filter="url(#fng6zdx9ibxpq)" height="120.0859" rx="7.5" ry="7.5" style="stroke:#888888;stroke-width:0.5;" width="227.1543" x="529.42" y="196.35"/><ellipse cx="568.5042" cy="215.4164" fill="#ADD1B2" rx="11" ry="11" style="stroke:#181818;stroke-width:1;"/><path d="M571.4774,221.0595 Q570.8963,221.3583 570.2572,221.5077 Q569.618,221.6571 568.9124,221.6571 Q566.4056,221.6571 565.0858,220.0053 Q563.7659,218.3534 563.7659,215.2323 Q563.7659,212.1029 565.0858,210.4511 Q566.4056,208.7992 568.9124,208.7992 Q569.618,208.7992 570.2655,208.9486 Q570.9129,209.098 571.4774,209.3969 L571.4774,212.1195 Q570.8465,211.5385 570.253,211.2687 Q569.6595,210.9989 569.0286,210.9989 Q567.6839,210.9989 566.9991,212.0656 Q566.3143,213.1322 566.3143,215.2323 Q566.3143,217.3241 566.9991,218.3908 Q567.6839,219.4574 569.0286,219.4574 Q569.6595,219.4574 570.253,219.1876 Q570.8465,218.9179 571.4774,218.3368 Z " fill="#000000"/><text fill="#000000" font-family="sans-serif" font-size="12" font-style="italic" lengthAdjust="spacing" textLength="90.6094" x="613.3685" y="212.9516">&#171;entity-invalid&#187;</text><text fill="#000000" font-family="Helvetica" font-size="14" lengthAdjust="spacing" textLength="141.6338" x="587.8563" y="226.2631">InvalidConstantRecord</text><line style="stroke:#888888;stroke-width:0.5;" x1="530.42" x2="755.5743" y1="234.4828" y2="234.4828"/><text fill="#000000" font-family="sans-serif" font-size="14" lengthAdjust="spacing" textLength="111.4736" x="535.42" y="252.018">-key: RecordKey</text><text fill="#000000" font-family="sans-serif" font-size="14" lengthAdjust="spacing" textLength="203.0205" x="535.42" y="268.5063">-reason: InvalidRecordReason</text><line style="stroke:#888888;stroke-width:1;" x1="530.42" x2="755.5743" y1="275.4594" y2="275.4594"/><text fill="#000000" font-family="sans-serif" font-size="14" lengthAdjust="spacing" textLength="123.6074" x="535.42" y="292.9945">+key(): RecordKey</text><text fill="#000000" font-family="sans-serif" font-size="14" lengthAdjust="spacing" textLength="215.1543" x="535.42" y="309.4828">+reason(): InvalidRecordReason</text></g><!--reverse link ConstantRecord to ValidConstantRecord--><g class="link" data-entity-1="ConstantRecord" data-entity-2="ValidConstantRecord" data-source-line="47" data-uid="lnk6" id="link_ConstantRecord_ValidConstantRecord"><path codeLine="47" d="M352.2752,133.1607 C338.4052,151.1407 325.6,167.74 310.17,187.76" fill="none" id="ConstantRecord-backto-ValidConstantRecord" style="stroke:#444444;stroke-width:1.2;"/><polygon fill="#444444" points="355.94,128.41,347.2757,133.0929,352.886,132.3689,353.61,137.9793,355.94,128.41" style="stroke:#444444;stroke-width:1.2;"/></g><!--reverse link ConstantRecord to InvalidConstantRecord--><g class="link" data-entity-1="ConstantRecord" data-entity-2="InvalidConstantRecord" data-source-line="48" data-uid="lnk7" id="link_ConstantRecord_InvalidConstantRecord"><path codeLine="48" d="M458.0778,131.745 C488.6478,152.185 520.74,173.64 553.98,195.87" fill="none" id="ConstantRecord-backto-InvalidConstantRecord" style="stroke:#444444;stroke-width:1.2;"/><polygon fill="#444444" points="453.09,128.41,458.3484,136.7376,457.2465,131.1891,462.795,130.0873,453.09,128.41" style="stroke:#444444;stroke-width:1.2;"/></g><!--SRC=[ZL9HQzim67pth_Xe7vgGUInZArje2cdPkh3GGXiAUrJaJubcHmhIbuPivBzFifr6TjGm6MEZEvtkJhg0uN08TvE7cz44dgQ_9kFxEp-Ls5og5JDi2JF6yxdHQvNTwa8RE1TV_HCmx89bUYFL7CYiCG3gLKQXWVxd01WPepUrtATojC7fGl9SeRNGV_-n3NxNYfxa7uH-Fu1MpYYRurHIWGT6gCmBPgs7xjaIuUm75Yz8ahEpDcT4PEHiJJZcMfKw7zeK-9i0tBIwsImaeP_N9aDJ1_nIZcJtFmfNLwX8qlRw6iwvG274svpqXHKoyqoy508lJp2bUkLwfkFkagJk2rn4IqnHwGT0Aa8Z64UuhO57v2uF1DugfXyzmEMAjfszo4_S3g1Qu7xVWK5cjHh0k79G8O_bPFTrjhbHeAr5K_WvP9VwU_YR8kC83xFVoCafHoHTPF-fkdy-tXUEYZt4JDsRnnmq66xT6lSc3aWQ9EAk4C9E7a_J4EWEOYu3BIVIwPwmrAlqF2UmrAWXUW0GkJTX5NdZZ0FWn677swWJ76lrQgrEzssrdR_45vZDqIRj06aQxIv2Yr_1Vm00]--></g></svg>
